<svg xmlns="http://www.w3.org/2000/svg" xmlns:xlink="http://www.w3.org/1999/xlink" contentStyleType="text/css" height="818px" preserveAspectRatio="none" style="width:2185px;height:818px;background:#FFFFFF;" version="1.1" viewBox="0 0 2185 818" width="2185px" zoomAndPan="magnify"><defs/><g><!--cluster gui--><g id="cluster_gui"><path d="M228,6 L253.7871,6 A3.75,3.75 0 0 1 256.2871,8.5 L263.2871,28.2969 L509,28.2969 A2.5,2.5 0 0 1 511.5,30.7969 L511.5,363 A2.5,2.5 0 0 1 509,365.5 L228,365.5 A2.5,2.5 0 0 1 225.5,363 L225.5,8.5 A2.5,2.5 0 0 1 228,6 " fill="none" style="stroke:#000000;stroke-width:1.5;"/><line style="stroke:#000000;stroke-width:1.5;" x1="225.5" x2="263.2871" y1="28.2969" y2="28.2969"/><text fill="#000000" font-family="sans-serif" font-size="14" font-weight="bold" lengthAdjust="spacing" textLength="24.7871" x="229.5" y="20.9951">gui</text></g><!--cluster ollama--><g id="cluster_ollama"><path d="M971,201 L1024.6982,201 A3.75,3.75 0 0 1 1027.1982,203.5 L1034.1982,223.2969 L1742,223.2969 A2.5,2.5 0 0 1 1744.5,225.7969 L1744.5,808.5 A2.5,2.5 0 0 1 1742,811 L971,811 A2.5,2.5 0 0 1 968.5,808.5 L968.5,203.5 A2.5,2.5 0 0 1 971,201 " fill="none" style="stroke:#000000;stroke-width:1.5;"/><line style="stroke:#000000;stroke-width:1.5;" x1="968.5" x2="1034.1982" y1="223.2969" y2="223.2969"/><text fill="#000000" font-family="sans-serif" font-size="14" font-weight="bold" lengthAdjust="spacing" textLength="52.6982" x="972.5" y="215.9951">ollama</text></g><!--cluster tesseract--><g id="cluster_tesseract"><path d="M1771,489.5 L1845.6914,489.5 A3.75,3.75 0 0 1 1848.1914,492 L1855.1914,511.7969 L2176,511.7969 A2.5,2.5 0 0 1 2178.5,514.2969 L2178.5,602 A2.5,2.5 0 0 1 2176,604.5 L1771,604.5 A2.5,2.5 0 0 1 1768.5,602 L1768.5,492 A2.5,2.5 0 0 1 1771,489.5 " fill="none" style="stroke:#000000;stroke-width:1.5;"/><line style="stroke:#000000;stroke-width:1.5;" x1="1768.5" x2="1855.1914" y1="511.7969" y2="511.7969"/><text fill="#000000" font-family="sans-serif" font-size="14" font-weight="bold" lengthAdjust="spacing" textLength="73.6914" x="1772.5" y="504.4951">tesseract</text></g><!--cluster database--><g id="cluster_database"><path d="M538,209.5 L611.9053,209.5 A3.75,3.75 0 0 1 614.4053,212 L621.4053,231.7969 L942,231.7969 A2.5,2.5 0 0 1 944.5,234.2969 L944.5,594 A2.5,2.5 0 0 1 942,596.5 L538,596.5 A2.5,2.5 0 0 1 535.5,594 L535.5,212 A2.5,2.5 0 0 1 538,209.5 " fill="none" style="stroke:#000000;stroke-width:1.5;"/><line style="stroke:#000000;stroke-width:1.5;" x1="535.5" x2="621.4053" y1="231.7969" y2="231.7969"/><text fill="#000000" font-family="sans-serif" font-size="14" font-weight="bold" lengthAdjust="spacing" textLength="72.9053" x="539.5" y="224.4951">database</text></g><!--class Main--><g id="elem_Main"><rect codeLine="6" fill="#F1F1F1" height="80.5938" id="Main" rx="2.5" ry="2.5" style="stroke:#181818;stroke-width:0.5;" width="253.1924" x="242" y="268.5"/><ellipse cx="347.6357" cy="284.5" fill="#ADD1B2" rx="11" ry="11" style="stroke:#181818;stroke-width:1.0;"/><path d="M350.6045,290.1406 Q350.0264,290.4375 349.3857,290.5781 Q348.7451,290.7344 348.042,290.7344 Q345.542,290.7344 344.2139,289.0938 Q342.9014,287.4375 342.9014,284.3125 Q342.9014,281.1875 344.2139,279.5313 Q345.542,277.875 348.042,277.875 Q348.7451,277.875 349.3857,278.0313 Q350.042,278.1875 350.6045,278.4844 L350.6045,281.2031 Q349.9795,280.625 349.3857,280.3594 Q348.792,280.0781 348.167,280.0781 Q346.8232,280.0781 346.1357,281.1563 Q345.4482,282.2188 345.4482,284.3125 Q345.4482,286.4063 346.1357,287.4844 Q346.8232,288.5469 348.167,288.5469 Q348.792,288.5469 349.3857,288.2813 Q349.9795,288 350.6045,287.4219 L350.6045,290.1406 Z " fill="#000000"/><text fill="#000000" font-family="sans-serif" font-size="14" lengthAdjust="spacing" textLength="33.4209" x="368.1357" y="289.3467">Main</text><line style="stroke:#181818;stroke-width:0.5;" x1="243" x2="494.1924" y1="300.5" y2="300.5"/><line style="stroke:#181818;stroke-width:0.5;" x1="243" x2="494.1924" y1="308.5" y2="308.5"/><ellipse cx="253" cy="322.1484" fill="#84BE84" rx="3" ry="3" style="stroke:#038048;stroke-width:1.0;"/><text fill="#000000" font-family="sans-serif" font-size="14" lengthAdjust="spacing" textLength="227.1924" x="262" y="325.4951">start(primaryStage: Stage): void</text><ellipse cx="253" cy="338.4453" fill="#84BE84" rx="3" ry="3" style="stroke:#038048;stroke-width:1.0;"/><text fill="#000000" font-family="sans-serif" font-size="14" lengthAdjust="spacing" textLength="177.085" x="262" y="341.792">main(args: String[]): void</text></g><!--class MainController--><g id="elem_MainController"><rect codeLine="11" fill="#F1F1F1" height="96.8906" id="MainController" rx="2.5" ry="2.5" style="stroke:#181818;stroke-width:0.5;" width="176.9375" x="319" y="41"/><ellipse cx="353.0547" cy="57" fill="#ADD1B2" rx="11" ry="11" style="stroke:#181818;stroke-width:1.0;"/><path d="M356.0234,62.6406 Q355.4453,62.9375 354.8047,63.0781 Q354.1641,63.2344 353.4609,63.2344 Q350.9609,63.2344 349.6328,61.5938 Q348.3203,59.9375 348.3203,56.8125 Q348.3203,53.6875 349.6328,52.0313 Q350.9609,50.375 353.4609,50.375 Q354.1641,50.375 354.8047,50.5313 Q355.4609,50.6875 356.0234,50.9844 L356.0234,53.7031 Q355.3984,53.125 354.8047,52.8594 Q354.2109,52.5781 353.5859,52.5781 Q352.2422,52.5781 351.5547,53.6563 Q350.8672,54.7188 350.8672,56.8125 Q350.8672,58.9063 351.5547,59.9844 Q352.2422,61.0469 353.5859,61.0469 Q354.2109,61.0469 354.8047,60.7813 Q355.3984,60.5 356.0234,59.9219 L356.0234,62.6406 Z " fill="#000000"/><text fill="#000000" font-family="sans-serif" font-size="14" lengthAdjust="spacing" textLength="102.5938" x="371.2891" y="61.8467">MainController</text><line style="stroke:#181818;stroke-width:0.5;" x1="320" x2="494.9375" y1="73" y2="73"/><rect fill="none" height="6" style="stroke:#C82930;stroke-width:1.0;" width="6" x="327" y="83.6484"/><text fill="#000000" font-family="sans-serif" font-size="14" lengthAdjust="spacing" textLength="126.1436" x="339" y="89.9951">filePath: TextField</text><rect fill="none" height="6" style="stroke:#C82930;stroke-width:1.0;" width="6" x="327" y="99.9453"/><text fill="#000000" font-family="sans-serif" font-size="14" lengthAdjust="spacing" textLength="127.7227" x="339" y="106.292">statusLabel: Label</text><line style="stroke:#181818;stroke-width:0.5;" x1="320" x2="494.9375" y1="113.5938" y2="113.5938"/><ellipse cx="330" cy="127.2422" fill="#84BE84" rx="3" ry="3" style="stroke:#038048;stroke-width:1.0;"/><text fill="#000000" font-family="sans-serif" font-size="14" lengthAdjust="spacing" textLength="150.9375" x="339" y="130.5889">handleUpload (): void</text></g><!--class CustomModelType--><g id="elem_CustomModelType"><rect codeLine="21" fill="#F1F1F1" height="64.2969" id="CustomModelType" rx="2.5" ry="2.5" style="stroke:#181818;stroke-width:0.5;" width="162.0059" x="1275.5" y="731"/><ellipse cx="1290.5" cy="747" fill="#ADD1B2" rx="11" ry="11" style="stroke:#181818;stroke-width:1.0;"/><path d="M1293.4688,752.6406 Q1292.8906,752.9375 1292.25,753.0781 Q1291.6094,753.2344 1290.9063,753.2344 Q1288.4063,753.2344 1287.0781,751.5938 Q1285.7656,749.9375 1285.7656,746.8125 Q1285.7656,743.6875 1287.0781,742.0313 Q1288.4063,740.375 1290.9063,740.375 Q1291.6094,740.375 1292.25,740.5313 Q1292.9063,740.6875 1293.4688,740.9844 L1293.4688,743.7031 Q1292.8438,743.125 1292.25,742.8594 Q1291.6563,742.5781 1291.0313,742.5781 Q1289.6875,742.5781 1289,743.6563 Q1288.3125,744.7188 1288.3125,746.8125 Q1288.3125,748.9063 1289,749.9844 Q1289.6875,751.0469 1291.0313,751.0469 Q1291.6563,751.0469 1292.25,750.7813 Q1292.8438,750.5 1293.4688,749.9219 L1293.4688,752.6406 Z " fill="#000000"/><text fill="#000000" font-family="sans-serif" font-size="14" lengthAdjust="spacing" textLength="130.0059" x="1304.5" y="751.8467">CustomModelType</text><line style="stroke:#181818;stroke-width:0.5;" x1="1276.5" x2="1436.5059" y1="763" y2="763"/><ellipse cx="1286.5" cy="776.6484" fill="none" rx="3" ry="3" style="stroke:#038048;stroke-width:1.0;"/><text fill="#000000" font-family="sans-serif" font-size="14" lengthAdjust="spacing" textLength="123.5254" x="1295.5" y="779.9951">typeName: String</text><line style="stroke:#181818;stroke-width:0.5;" x1="1276.5" x2="1436.5059" y1="787.2969" y2="787.2969"/></g><!--class OllamaEngine--><g id="elem_OllamaEngine"><rect codeLine="25" fill="#F1F1F1" height="194.6719" id="OllamaEngine" rx="2.5" ry="2.5" style="stroke:#181818;stroke-width:0.5;" width="524.1758" x="1094.5" y="459"/><ellipse cx="1303.5498" cy="475" fill="#ADD1B2" rx="11" ry="11" style="stroke:#181818;stroke-width:1.0;"/><path d="M1306.5186,480.6406 Q1305.9404,480.9375 1305.2998,481.0781 Q1304.6592,481.2344 1303.9561,481.2344 Q1301.4561,481.2344 1300.1279,479.5938 Q1298.8154,477.9375 1298.8154,474.8125 Q1298.8154,471.6875 1300.1279,470.0313 Q1301.4561,468.375 1303.9561,468.375 Q1304.6592,468.375 1305.2998,468.5313 Q1305.9561,468.6875 1306.5186,468.9844 L1306.5186,471.7031 Q1305.8936,471.125 1305.2998,470.8594 Q1304.7061,470.5781 1304.0811,470.5781 Q1302.7373,470.5781 1302.0498,471.6563 Q1301.3623,472.7188 1301.3623,474.8125 Q1301.3623,476.9063 1302.0498,477.9844 Q1302.7373,479.0469 1304.0811,479.0469 Q1304.7061,479.0469 1305.2998,478.7813 Q1305.8936,478.5 1306.5186,477.9219 L1306.5186,480.6406 Z " fill="#000000"/><text fill="#000000" font-family="sans-serif" font-size="14" lengthAdjust="spacing" textLength="97.5762" x="1324.0498" y="479.8467">OllamaEngine</text><line style="stroke:#181818;stroke-width:0.5;" x1="1095.5" x2="1617.6758" y1="491" y2="491"/><rect fill="none" height="6" style="stroke:#C82930;stroke-width:1.0;" width="6" x="1102.5" y="501.6484"/><text fill="#000000" font-family="sans-serif" font-size="14" lengthAdjust="spacing" textLength="94.541" x="1114.5" y="507.9951">model: String</text><rect fill="none" height="6" style="stroke:#C82930;stroke-width:1.0;" width="6" x="1102.5" y="517.9453"/><text fill="#000000" font-family="sans-serif" font-size="14" lengthAdjust="spacing" textLength="128.9258" x="1114.5" y="524.292">temperature: float</text><line style="stroke:#181818;stroke-width:0.5;" x1="1095.5" x2="1617.6758" y1="531.5938" y2="531.5938"/><ellipse cx="1105.5" cy="545.2422" fill="#84BE84" rx="3" ry="3" style="stroke:#038048;stroke-width:1.0;"/><text fill="#000000" font-family="sans-serif" font-size="14" lengthAdjust="spacing" textLength="212.1396" x="1114.5" y="548.5889">setModel (model: String): void</text><ellipse cx="1105.5" cy="561.5391" fill="#84BE84" rx="3" ry="3" style="stroke:#038048;stroke-width:1.0;"/><text fill="#000000" font-family="sans-serif" font-size="14" lengthAdjust="spacing" textLength="131.3457" x="1114.5" y="564.8857">getModel (): String</text><ellipse cx="1105.5" cy="577.8359" fill="#84BE84" rx="3" ry="3" style="stroke:#038048;stroke-width:1.0;"/><text fill="#000000" font-family="sans-serif" font-size="14" lengthAdjust="spacing" textLength="295.8594" x="1114.5" y="581.1826">setTemperature (temperature: float): void</text><ellipse cx="1105.5" cy="594.1328" fill="#84BE84" rx="3" ry="3" style="stroke:#038048;stroke-width:1.0;"/><text fill="#000000" font-family="sans-serif" font-size="14" lengthAdjust="spacing" textLength="170.3516" x="1114.5" y="597.4795">getTemperature (): float</text><ellipse cx="1105.5" cy="610.4297" fill="#84BE84" rx="3" ry="3" style="stroke:#038048;stroke-width:1.0;"/><text fill="#000000" font-family="sans-serif" font-size="14" lengthAdjust="spacing" textLength="411.9951" x="1114.5" y="613.7764">generateAsyncAnswerFromPrompt (prompt: String): String</text><ellipse cx="1105.5" cy="626.7266" fill="#84BE84" rx="3" ry="3" style="stroke:#038048;stroke-width:1.0;"/><text fill="#000000" font-family="sans-serif" font-size="14" lengthAdjust="spacing" textLength="404.0107" x="1114.5" y="630.0732">generateSyncAnswerFromPrompt (prompt: String): String</text><ellipse cx="1105.5" cy="643.0234" fill="#84BE84" rx="3" ry="3" style="stroke:#038048;stroke-width:1.0;"/><text fill="#000000" font-family="sans-serif" font-size="14" lengthAdjust="spacing" textLength="498.1758" x="1114.5" y="646.3701">generateAnswerFromImage (prompt: String, imagePath: String): String</text></g><!--class ImageProcessor--><g id="elem_ImageProcessor"><rect codeLine="37" fill="#F1F1F1" height="145.7813" id="ImageProcessor" rx="2.5" ry="2.5" style="stroke:#181818;stroke-width:0.5;" width="743.2881" x="985" y="236"/><ellipse cx="1296.4795" cy="252" fill="#ADD1B2" rx="11" ry="11" style="stroke:#181818;stroke-width:1.0;"/><path d="M1299.4482,257.6406 Q1298.8701,257.9375 1298.2295,258.0781 Q1297.5889,258.2344 1296.8857,258.2344 Q1294.3857,258.2344 1293.0576,256.5938 Q1291.7451,254.9375 1291.7451,251.8125 Q1291.7451,248.6875 1293.0576,247.0313 Q1294.3857,245.375 1296.8857,245.375 Q1297.5889,245.375 1298.2295,245.5313 Q1298.8857,245.6875 1299.4482,245.9844 L1299.4482,248.7031 Q1298.8232,248.125 1298.2295,247.8594 Q1297.6357,247.5781 1297.0107,247.5781 Q1295.667,247.5781 1294.9795,248.6563 Q1294.292,249.7188 1294.292,251.8125 Q1294.292,253.9063 1294.9795,254.9844 Q1295.667,256.0469 1297.0107,256.0469 Q1297.6357,256.0469 1298.2295,255.7813 Q1298.8232,255.5 1299.4482,254.9219 L1299.4482,257.6406 Z " fill="#000000"/><text fill="#000000" font-family="sans-serif" font-size="14" lengthAdjust="spacing" textLength="111.8291" x="1316.9795" y="256.8467">ImageProcessor</text><line style="stroke:#181818;stroke-width:0.5;" x1="986" x2="1727.2881" y1="268" y2="268"/><rect fill="none" height="6" style="stroke:#C82930;stroke-width:1.0;" width="6" x="993" y="278.6484"/><text fill="#000000" font-family="sans-serif" font-size="14" lengthAdjust="spacing" textLength="201.8652" x="1005" y="284.9951">ollamaEngine: OllamaEngine</text><rect fill="none" height="6" style="stroke:#C82930;stroke-width:1.0;" width="6" x="993" y="294.9453"/><text fill="#000000" font-family="sans-serif" font-size="14" lengthAdjust="spacing" textLength="201.708" x="1005" y="301.292">tessEngine: TesseractEngine</text><line style="stroke:#181818;stroke-width:0.5;" x1="986" x2="1727.2881" y1="308.5938" y2="308.5938"/><ellipse cx="996" cy="322.2422" fill="#84BE84" rx="3" ry="3" style="stroke:#038048;stroke-width:1.0;"/><text fill="#000000" font-family="sans-serif" font-size="14" lengthAdjust="spacing" textLength="459.4912" x="1005" y="325.5889">processWithTesseract (imagePath: String, prompt: PrompBuilder)</text><ellipse cx="996" cy="338.5391" fill="#84BE84" rx="3" ry="3" style="stroke:#038048;stroke-width:1.0;"/><text fill="#000000" font-family="sans-serif" font-size="14" lengthAdjust="spacing" textLength="426.5488" x="1005" y="341.8857">processWithVLM (imagePath: String, prompt: PromptBuilder)</text><ellipse cx="996" cy="354.8359" fill="#84BE84" rx="3" ry="3" style="stroke:#038048;stroke-width:1.0;"/><text fill="#000000" font-family="sans-serif" font-size="14" lengthAdjust="spacing" textLength="717.2881" x="1005" y="358.1826">asyncProcessWithTesseract (imagePath: String, prompt: PromptBuilder, callback: Consumer&lt;String&gt;)</text><ellipse cx="996" cy="371.1328" fill="#84BE84" rx="3" ry="3" style="stroke:#038048;stroke-width:1.0;"/><text fill="#000000" font-family="sans-serif" font-size="14" lengthAdjust="spacing" textLength="678.8564" x="1005" y="374.4795">asyncProcessWithVLM (imagePath: String, prompt: PromptBuilder, callback: Consumer&lt;String&gt;)</text></g><!--class TesseractEngine--><g id="elem_TesseractEngine"><rect codeLine="51" fill="#F1F1F1" height="64.2969" id="TesseractEngine" rx="2.5" ry="2.5" style="stroke:#181818;stroke-width:0.5;" width="378.9668" x="1784" y="524.5"/><ellipse cx="1911.2988" cy="540.5" fill="#ADD1B2" rx="11" ry="11" style="stroke:#181818;stroke-width:1.0;"/><path d="M1914.2676,546.1406 Q1913.6895,546.4375 1913.0488,546.5781 Q1912.4082,546.7344 1911.7051,546.7344 Q1909.2051,546.7344 1907.877,545.0938 Q1906.5645,543.4375 1906.5645,540.3125 Q1906.5645,537.1875 1907.877,535.5313 Q1909.2051,533.875 1911.7051,533.875 Q1912.4082,533.875 1913.0488,534.0313 Q1913.7051,534.1875 1914.2676,534.4844 L1914.2676,537.2031 Q1913.6426,536.625 1913.0488,536.3594 Q1912.4551,536.0781 1911.8301,536.0781 Q1910.4863,536.0781 1909.7988,537.1563 Q1909.1113,538.2188 1909.1113,540.3125 Q1909.1113,542.4063 1909.7988,543.4844 Q1910.4863,544.5469 1911.8301,544.5469 Q1912.4551,544.5469 1913.0488,544.2813 Q1913.6426,544 1914.2676,543.4219 L1914.2676,546.1406 Z " fill="#000000"/><text fill="#000000" font-family="sans-serif" font-size="14" lengthAdjust="spacing" textLength="115.8691" x="1931.7988" y="545.3467">TesseractEngine</text><line style="stroke:#181818;stroke-width:0.5;" x1="1785" x2="2161.9668" y1="556.5" y2="556.5"/><line style="stroke:#181818;stroke-width:0.5;" x1="1785" x2="2161.9668" y1="564.5" y2="564.5"/><ellipse cx="1795" cy="578.1484" fill="#84BE84" rx="3" ry="3" style="stroke:#038048;stroke-width:1.0;"/><text fill="#000000" font-family="sans-serif" font-size="14" lengthAdjust="spacing" textLength="352.9668" x="1804" y="581.4951">extractTextFromImage (imagePath: String): String</text></g><!--class DatabaseConnection--><g id="elem_DatabaseConnection"><rect codeLine="57" fill="#F1F1F1" height="129.4844" id="DatabaseConnection" rx="2.5" ry="2.5" style="stroke:#181818;stroke-width:0.5;" width="236.4102" x="576.5" y="244.5"/><ellipse cx="617.7775" cy="260.5" fill="#ADD1B2" rx="11" ry="11" style="stroke:#181818;stroke-width:1.0;"/><path d="M620.7463,266.1406 Q620.1682,266.4375 619.5275,266.5781 Q618.8869,266.7344 618.1838,266.7344 Q615.6838,266.7344 614.3557,265.0938 Q613.0432,263.4375 613.0432,260.3125 Q613.0432,257.1875 614.3557,255.5313 Q615.6838,253.875 618.1838,253.875 Q618.8869,253.875 619.5275,254.0313 Q620.1838,254.1875 620.7463,254.4844 L620.7463,257.2031 Q620.1213,256.625 619.5275,256.3594 Q618.9338,256.0781 618.3088,256.0781 Q616.965,256.0781 616.2775,257.1563 Q615.59,258.2188 615.59,260.3125 Q615.59,262.4063 616.2775,263.4844 Q616.965,264.5469 618.3088,264.5469 Q618.9338,264.5469 619.5275,264.2813 Q620.1213,264 620.7463,263.4219 L620.7463,266.1406 Z " fill="#000000"/><text fill="#000000" font-family="sans-serif" font-size="14" lengthAdjust="spacing" textLength="146.0156" x="637.617" y="265.3467">DatabaseConnection</text><line style="stroke:#181818;stroke-width:0.5;" x1="577.5" x2="811.9102" y1="276.5" y2="276.5"/><rect fill="none" height="6" style="stroke:#C82930;stroke-width:1.0;" width="6" x="584.5" y="287.1484"/><text fill="#000000" font-family="sans-serif" font-size="14" lengthAdjust="spacing" textLength="69.4668" x="596.5" y="293.4951">url: String</text><rect fill="none" height="6" style="stroke:#C82930;stroke-width:1.0;" width="6" x="584.5" y="303.4453"/><text fill="#000000" font-family="sans-serif" font-size="14" lengthAdjust="spacing" textLength="81.4844" x="596.5" y="309.792">user: String</text><rect fill="none" height="6" style="stroke:#C82930;stroke-width:1.0;" width="6" x="584.5" y="319.7422"/><text fill="#000000" font-family="sans-serif" font-size="14" lengthAdjust="spacing" textLength="117.6602" x="596.5" y="326.0889">password: String</text><line style="stroke:#181818;stroke-width:0.5;" x1="577.5" x2="811.9102" y1="333.3906" y2="333.3906"/><ellipse cx="587.5" cy="347.0391" fill="#84BE84" rx="3" ry="3" style="stroke:#038048;stroke-width:1.0;"/><text fill="#000000" font-family="sans-serif" font-size="14" lengthAdjust="spacing" textLength="200.2588" x="596.5" y="350.3857">loadDatabaseConfig () : void</text><ellipse cx="587.5" cy="363.3359" fill="#84BE84" rx="3" ry="3" style="stroke:#038048;stroke-width:1.0;"/><text fill="#000000" font-family="sans-serif" font-size="14" lengthAdjust="spacing" textLength="210.4102" x="596.5" y="366.6826">getConnection () : Connection</text></g><!--class Pessoa--><g id="elem_Pessoa"><rect codeLine="65" fill="#F1F1F1" height="48" id="Pessoa" rx="2.5" ry="2.5" style="stroke:#181818;stroke-width:0.5;" width="80.7881" x="552" y="532.5"/><ellipse cx="567" cy="548.5" fill="#ADD1B2" rx="11" ry="11" style="stroke:#181818;stroke-width:1.0;"/><path d="M569.9688,554.1406 Q569.3906,554.4375 568.75,554.5781 Q568.1094,554.7344 567.4063,554.7344 Q564.9063,554.7344 563.5781,553.0938 Q562.2656,551.4375 562.2656,548.3125 Q562.2656,545.1875 563.5781,543.5313 Q564.9063,541.875 567.4063,541.875 Q568.1094,541.875 568.75,542.0313 Q569.4063,542.1875 569.9688,542.4844 L569.9688,545.2031 Q569.3438,544.625 568.75,544.3594 Q568.1563,544.0781 567.5313,544.0781 Q566.1875,544.0781 565.5,545.1563 Q564.8125,546.2188 564.8125,548.3125 Q564.8125,550.4063 565.5,551.4844 Q566.1875,552.5469 567.5313,552.5469 Q568.1563,552.5469 568.75,552.2813 Q569.3438,552 569.9688,551.4219 L569.9688,554.1406 Z " fill="#000000"/><text fill="#000000" font-family="sans-serif" font-size="14" lengthAdjust="spacing" textLength="48.7881" x="581" y="553.3467">Pessoa</text><line style="stroke:#181818;stroke-width:0.5;" x1="553" x2="631.7881" y1="564.5" y2="564.5"/><line style="stroke:#181818;stroke-width:0.5;" x1="553" x2="631.7881" y1="572.5" y2="572.5"/></g><!--class RG--><g id="elem_RG"><rect codeLine="69" fill="#F1F1F1" height="48" id="RG" rx="2.5" ry="2.5" style="stroke:#181818;stroke-width:0.5;" width="52.5762" x="668" y="532.5"/><ellipse cx="683" cy="548.5" fill="#ADD1B2" rx="11" ry="11" style="stroke:#181818;stroke-width:1.0;"/><path d="M685.9688,554.1406 Q685.3906,554.4375 684.75,554.5781 Q684.1094,554.7344 683.4063,554.7344 Q680.9063,554.7344 679.5781,553.0938 Q678.2656,551.4375 678.2656,548.3125 Q678.2656,545.1875 679.5781,543.5313 Q680.9063,541.875 683.4063,541.875 Q684.1094,541.875 684.75,542.0313 Q685.4063,542.1875 685.9688,542.4844 L685.9688,545.2031 Q685.3438,544.625 684.75,544.3594 Q684.1563,544.0781 683.5313,544.0781 Q682.1875,544.0781 681.5,545.1563 Q680.8125,546.2188 680.8125,548.3125 Q680.8125,550.4063 681.5,551.4844 Q682.1875,552.5469 683.5313,552.5469 Q684.1563,552.5469 684.75,552.2813 Q685.3438,552 685.9688,551.4219 L685.9688,554.1406 Z " fill="#000000"/><text fill="#000000" font-family="sans-serif" font-size="14" lengthAdjust="spacing" textLength="20.5762" x="697" y="553.3467">RG</text><line style="stroke:#181818;stroke-width:0.5;" x1="669" x2="719.5762" y1="564.5" y2="564.5"/><line style="stroke:#181818;stroke-width:0.5;" x1="669" x2="719.5762" y1="572.5" y2="572.5"/></g><!--class CNH--><g id="elem_CNH"><rect codeLine="73" fill="#F1F1F1" height="48" id="CNH" rx="2.5" ry="2.5" style="stroke:#181818;stroke-width:0.5;" width="62.7754" x="756" y="532.5"/><ellipse cx="771" cy="548.5" fill="#ADD1B2" rx="11" ry="11" style="stroke:#181818;stroke-width:1.0;"/><path d="M773.9688,554.1406 Q773.3906,554.4375 772.75,554.5781 Q772.1094,554.7344 771.4063,554.7344 Q768.9063,554.7344 767.5781,553.0938 Q766.2656,551.4375 766.2656,548.3125 Q766.2656,545.1875 767.5781,543.5313 Q768.9063,541.875 771.4063,541.875 Q772.1094,541.875 772.75,542.0313 Q773.4063,542.1875 773.9688,542.4844 L773.9688,545.2031 Q773.3438,544.625 772.75,544.3594 Q772.1563,544.0781 771.5313,544.0781 Q770.1875,544.0781 769.5,545.1563 Q768.8125,546.2188 768.8125,548.3125 Q768.8125,550.4063 769.5,551.4844 Q770.1875,552.5469 771.5313,552.5469 Q772.1563,552.5469 772.75,552.2813 Q773.3438,552 773.9688,551.4219 L773.9688,554.1406 Z " fill="#000000"/><text fill="#000000" font-family="sans-serif" font-size="14" lengthAdjust="spacing" textLength="30.7754" x="785" y="553.3467">CNH</text><line style="stroke:#181818;stroke-width:0.5;" x1="757" x2="817.7754" y1="564.5" y2="564.5"/><line style="stroke:#181818;stroke-width:0.5;" x1="757" x2="817.7754" y1="572.5" y2="572.5"/></g><!--class CRNM--><g id="elem_CRNM"><rect codeLine="77" fill="#F1F1F1" height="48" id="CRNM" rx="2.5" ry="2.5" style="stroke:#181818;stroke-width:0.5;" width="74.0547" x="854.5" y="532.5"/><ellipse cx="869.5" cy="548.5" fill="#ADD1B2" rx="11" ry="11" style="stroke:#181818;stroke-width:1.0;"/><path d="M872.4688,554.1406 Q871.8906,554.4375 871.25,554.5781 Q870.6094,554.7344 869.9063,554.7344 Q867.4063,554.7344 866.0781,553.0938 Q864.7656,551.4375 864.7656,548.3125 Q864.7656,545.1875 866.0781,543.5313 Q867.4063,541.875 869.9063,541.875 Q870.6094,541.875 871.25,542.0313 Q871.9063,542.1875 872.4688,542.4844 L872.4688,545.2031 Q871.8438,544.625 871.25,544.3594 Q870.6563,544.0781 870.0313,544.0781 Q868.6875,544.0781 868,545.1563 Q867.3125,546.2188 867.3125,548.3125 Q867.3125,550.4063 868,551.4844 Q868.6875,552.5469 870.0313,552.5469 Q870.6563,552.5469 871.25,552.2813 Q871.8438,552 872.4688,551.4219 L872.4688,554.1406 Z " fill="#000000"/><text fill="#000000" font-family="sans-serif" font-size="14" lengthAdjust="spacing" textLength="42.0547" x="883.5" y="553.3467">CRNM</text><line style="stroke:#181818;stroke-width:0.5;" x1="855.5" x2="927.5547" y1="564.5" y2="564.5"/><line style="stroke:#181818;stroke-width:0.5;" x1="855.5" x2="927.5547" y1="572.5" y2="572.5"/></g><!--class App--><g id="elem_App"><rect codeLine="1" fill="#F1F1F1" height="64.2969" id="App" rx="2.5" ry="2.5" style="stroke:#181818;stroke-width:0.5;" width="203.085" x="7" y="57.5"/><ellipse cx="90.6172" cy="73.5" fill="#ADD1B2" rx="11" ry="11" style="stroke:#181818;stroke-width:1.0;"/><path d="M93.5859,79.1406 Q93.0078,79.4375 92.3672,79.5781 Q91.7266,79.7344 91.0234,79.7344 Q88.5234,79.7344 87.1953,78.0938 Q85.8828,76.4375 85.8828,73.3125 Q85.8828,70.1875 87.1953,68.5313 Q88.5234,66.875 91.0234,66.875 Q91.7266,66.875 92.3672,67.0313 Q93.0234,67.1875 93.5859,67.4844 L93.5859,70.2031 Q92.9609,69.625 92.3672,69.3594 Q91.7734,69.0781 91.1484,69.0781 Q89.8047,69.0781 89.1172,70.1563 Q88.4297,71.2188 88.4297,73.3125 Q88.4297,75.4063 89.1172,76.4844 Q89.8047,77.5469 91.1484,77.5469 Q91.7734,77.5469 92.3672,77.2813 Q92.9609,77 93.5859,76.4219 L93.5859,79.1406 Z " fill="#000000"/><text fill="#000000" font-family="sans-serif" font-size="14" lengthAdjust="spacing" textLength="27.3506" x="111.1172" y="78.3467">App</text><line style="stroke:#181818;stroke-width:0.5;" x1="8" x2="209.085" y1="89.5" y2="89.5"/><line style="stroke:#181818;stroke-width:0.5;" x1="8" x2="209.085" y1="97.5" y2="97.5"/><ellipse cx="18" cy="111.1484" fill="#84BE84" rx="3" ry="3" style="stroke:#038048;stroke-width:1.0;"/><text fill="#000000" font-family="sans-serif" font-size="14" lengthAdjust="spacing" textLength="177.085" x="27" y="114.4951">main(args: String[]): void</text></g><!--link MainController to Main--><g id="link_MainController_Main"><path codeLine="17" d="M398.94,138.23 C391.95,177.25 383.2293,225.8442 376.6593,262.4742 " fill="none" id="MainController-to-Main" style="stroke:#181818;stroke-width:1.0;"/><polygon fill="#181818" points="375.6,268.38,381.1261,260.2275,376.4827,263.4585,373.2517,258.8152,375.6,268.38" style="stroke:#181818;stroke-width:1.0;"/><text fill="#000000" font-family="sans-serif" font-size="13" lengthAdjust="spacing" textLength="52.1206" x="393.5" y="181.0669">controls</text></g><!--link ImageProcessor to OllamaEngine--><g id="link_ImageProcessor_OllamaEngine"><path codeLine="46" d="M1356.5,382.33 C1356.5,406.23 1356.5,427.22 1356.5,452.66 " fill="none" id="ImageProcessor-to-OllamaEngine" style="stroke:#181818;stroke-width:1.0;"/><polygon fill="#181818" points="1356.5,458.66,1360.5,449.66,1356.5,453.66,1352.5,449.66,1356.5,458.66" style="stroke:#181818;stroke-width:1.0;"/><text fill="#000000" font-family="sans-serif" font-size="13" lengthAdjust="spacing" textLength="30.2783" x="1357.5" y="425.0669">start</text></g><!--link OllamaEngine to CustomModelType--><g id="link_OllamaEngine_CustomModelType"><path codeLine="47" d="M1356.5,654.06 C1356.5,681.78 1356.5,704.05 1356.5,724.71 " fill="none" id="OllamaEngine-to-CustomModelType" style="stroke:#181818;stroke-width:1.0;"/><polygon fill="#181818" points="1356.5,730.71,1360.5,721.71,1356.5,725.71,1352.5,721.71,1356.5,730.71" style="stroke:#181818;stroke-width:1.0;"/><text fill="#000000" font-family="sans-serif" font-size="13" lengthAdjust="spacing" textLength="29.7832" x="1357.5" y="697.0669">uses</text></g><!--link DatabaseConnection to Pessoa--><g id="link_DatabaseConnection_Pessoa"><path codeLine="81" d="M659.5,373.77 C653.17,386.29 646.88,399.43 641.5,412 C623.75,453.51 609.5134,498.0628 600.9134,526.7428 " fill="none" id="DatabaseConnection-to-Pessoa" style="stroke:#181818;stroke-width:1.0;"/><polygon fill="#181818" points="599.19,532.49,605.6065,525.0181,600.6261,527.7007,597.9436,522.7203,599.19,532.49" style="stroke:#181818;stroke-width:1.0;"/><text fill="#000000" font-family="sans-serif" font-size="13" lengthAdjust="spacing" textLength="43.8052" x="642.5" y="425.0669">access</text></g><!--link DatabaseConnection to RG--><g id="link_DatabaseConnection_RG"><path codeLine="82" d="M694.5,373.54 C694.5,425.54 694.5,490.18 694.5,526.24 " fill="none" id="DatabaseConnection-to-RG" style="stroke:#181818;stroke-width:1.0;"/><polygon fill="#181818" points="694.5,532.24,698.5,523.24,694.5,527.24,690.5,523.24,694.5,532.24" style="stroke:#181818;stroke-width:1.0;"/><text fill="#000000" font-family="sans-serif" font-size="13" lengthAdjust="spacing" textLength="43.8052" x="695.5" y="425.0669">access</text></g><!--link DatabaseConnection to CNH--><g id="link_DatabaseConnection_CNH"><path codeLine="83" d="M727.74,373.76 C733.7,386.27 739.57,399.42 744.5,412 C760.77,453.53 773.0557,498.0065 780.3757,526.6765 " fill="none" id="DatabaseConnection-to-CNH" style="stroke:#181818;stroke-width:1.0;"/><polygon fill="#181818" points="781.86,532.49,783.5092,522.7802,780.6231,527.6454,775.7579,524.7593,781.86,532.49" style="stroke:#181818;stroke-width:1.0;"/><text fill="#000000" font-family="sans-serif" font-size="13" lengthAdjust="spacing" textLength="43.8052" x="750.5" y="425.0669">access</text></g><!--link DatabaseConnection to CRNM--><g id="link_DatabaseConnection_CRNM"><path codeLine="84" d="M765.83,373.73 C778.47,386.03 791.19,399.11 802.5,412 C819.5,431.38 822.54,437.32 836.5,459 C852.27,483.48 865.7144,507.3831 876.4344,527.1931 " fill="none" id="DatabaseConnection-to-CRNM" style="stroke:#181818;stroke-width:1.0;"/><polygon fill="#181818" points="879.29,532.47,878.5246,522.6509,876.9104,528.0726,871.4887,526.4583,879.29,532.47" style="stroke:#181818;stroke-width:1.0;"/><text fill="#000000" font-family="sans-serif" font-size="13" lengthAdjust="spacing" textLength="43.8052" x="816.5" y="425.0669">access</text></g><!--link MainController to ImageProcessor--><g id="link_MainController_ImageProcessor"><path codeLine="88" d="M496.35,105.12 C603.24,123.24 787.87,156.26 944.5,193 C998.82,205.74 1050.9453,219.3172 1105.6753,234.3872 " fill="none" id="MainController-to-ImageProcessor" style="stroke:#181818;stroke-width:1.0;"/><polygon fill="#181818" points="1111.46,235.98,1103.8448,229.7343,1106.6394,234.6526,1101.721,237.4472,1111.46,235.98" style="stroke:#181818;stroke-width:1.0;"/><text fill="#000000" font-family="sans-serif" font-size="13" lengthAdjust="spacing" textLength="58.9443" x="901.5" y="181.0669">executes</text></g><!--link MainController to DatabaseConnection--><g id="link_MainController_DatabaseConnection"><path codeLine="89" d="M470.48,138.23 C511.65,169.43 561.108,206.9161 605.908,240.8661 " fill="none" id="MainController-to-DatabaseConnection" style="stroke:#181818;stroke-width:1.0;"/><polygon fill="#181818" points="610.69,244.49,605.9329,235.8662,606.705,241.4701,601.1011,242.2422,610.69,244.49" style="stroke:#181818;stroke-width:1.0;"/><text fill="#000000" font-family="sans-serif" font-size="13" lengthAdjust="spacing" textLength="29.7832" x="525.5" y="181.0669">uses</text></g><!--link ImageProcessor to TesseractEngine--><g id="link_ImageProcessor_TesseractEngine"><path codeLine="90" d="M1547.91,382.11 C1610.72,406.14 1680.74,433.33 1744.5,459 C1797.33,480.27 1851.0424,502.9029 1896.0324,522.1229 " fill="none" id="ImageProcessor-to-TesseractEngine" style="stroke:#181818;stroke-width:1.0;"/><polygon fill="#181818" points="1901.55,524.48,1894.845,517.2659,1896.952,522.5157,1891.7022,524.6227,1901.55,524.48" style="stroke:#181818;stroke-width:1.0;"/><text fill="#000000" font-family="sans-serif" font-size="13" lengthAdjust="spacing" textLength="30.2783" x="1660.5" y="425.0669">start</text></g><!--link App to Main--><g id="link_App_Main"><path codeLine="91" d="M145.75,121.66 C191.95,160.31 266.1476,222.3806 316.5776,264.5606 " fill="none" id="App-to-Main" style="stroke:#181818;stroke-width:1.0;"/><polygon fill="#181818" points="321.18,268.41,316.8428,259.5676,317.3447,265.2021,311.7102,265.7041,321.18,268.41" style="stroke:#181818;stroke-width:1.0;"/><text fill="#000000" font-family="sans-serif" font-size="13" lengthAdjust="spacing" textLength="58.9443" x="215.5" y="181.0669">executes</text></g><!--SRC=[fLR1Zjem4Btp5NCCMlO7ecebIhjjfOL52sqFrHvCCWIhZXFPJhUewhztx2HW9nPiMoGK6C-yz-mt7iW4qnhcTGs_9a2l6oWPbmbJXKvXOnINnRVdQGe_AfvFVaycDSk-imAXQ7XNaJc49LLrWHP66wPCKYjUCdNS6AgnUFJemSwf5nXj0h66F8jA6bK9WSfZl8Kz5xXcvf325d-QUuuYzrP9Zsdq0zkXIC4zm9DmO38N-BaM5SiXYR0FU6zlxzejfv2rKUsV3YMnaWK7j6YqgSfbbQFO7ciCpifGOCLAxFS_tlQZ0tml2ouns7Hf0OEwDcwmh57HbXMXxcbRnlS6ZHC2IL0-TgOu9Kv770vcUwQ1PCmPHGngfcDr1KgxZ7DzbDbSwXTKzwegr_Ik3L1BsQUdUQIh1zZyP_svzbDfNHsKpe3RSDjoCRJ0GGT16ZBKkWeRj_BCJGEh0qErxbEsz9aKPcQGTGDrI_2LcyCf2PAHpXdqMt6dyhRX8aSrZGDzULXUXp0H36ODNF-JeXvk1XaJOaVNAWMwVhefKRrfA-ukKVsLvkiadPC33-qGU0oySqFFfGONrYOExtyAZSPWQ9ZJyVXpO-1rC3TepDaLD-xENNgrAptEd1csOne3odTTaCv2OcPu9ODsRLHiuD1kL2HS4-1BfVB8DREprgFQyuB60SGcXYV4PPo_- -uidFYrzSQEtl4LVFeG3IzM7-FnfzLoi10v6Ujjnva2osnhN4eb3Qz9ivfUbMSrdXAjiv4Vgh1jKseRp1hgjbZkcAThr4Zl3rgpRt_xPyBxVUpP_W00]--></g></svg>