<svg xmlns="http://www.w3.org/2000/svg" xmlns:xlink="http://www.w3.org/1999/xlink" contentStyleType="text/css" height="883px" preserveAspectRatio="none" style="width:2254px;height:883px;background:#FFFFFF;" version="1.1" viewBox="0 0 2254 883" width="2254px" zoomAndPan="magnify"><defs/><g><!--cluster gui--><g id="cluster_gui"><path d="M231,6 L256.7871,6 A3.75,3.75 0 0 1 259.2871,8.5 L266.2871,28.2969 L578,28.2969 A2.5,2.5 0 0 1 580.5,30.7969 L580.5,428 A2.5,2.5 0 0 1 578,430.5 L231,430.5 A2.5,2.5 0 0 1 228.5,428 L228.5,8.5 A2.5,2.5 0 0 1 231,6 " fill="none" style="stroke:#000000;stroke-width:1.5;"/><line style="stroke:#000000;stroke-width:1.5;" x1="228.5" x2="266.2871" y1="28.2969" y2="28.2969"/><text fill="#000000" font-family="sans-serif" font-size="14" font-weight="bold" lengthAdjust="spacing" textLength="24.7871" x="232.5" y="20.9951">gui</text></g><!--cluster ollama--><g id="cluster_ollama"><path d="M1040,266 L1093.6982,266 A3.75,3.75 0 0 1 1096.1982,268.5 L1103.1982,288.2969 L1811,288.2969 A2.5,2.5 0 0 1 1813.5,290.7969 L1813.5,873.5 A2.5,2.5 0 0 1 1811,876 L1040,876 A2.5,2.5 0 0 1 1037.5,873.5 L1037.5,268.5 A2.5,2.5 0 0 1 1040,266 " fill="none" style="stroke:#000000;stroke-width:1.5;"/><line style="stroke:#000000;stroke-width:1.5;" x1="1037.5" x2="1103.1982" y1="288.2969" y2="288.2969"/><text fill="#000000" font-family="sans-serif" font-size="14" font-weight="bold" lengthAdjust="spacing" textLength="52.6982" x="1041.5" y="280.9951">ollama</text></g><!--cluster tesseract--><g id="cluster_tesseract"><path d="M1840,554.5 L1914.6914,554.5 A3.75,3.75 0 0 1 1917.1914,557 L1924.1914,576.7969 L2245,576.7969 A2.5,2.5 0 0 1 2247.5,579.2969 L2247.5,667 A2.5,2.5 0 0 1 2245,669.5 L1840,669.5 A2.5,2.5 0 0 1 1837.5,667 L1837.5,557 A2.5,2.5 0 0 1 1840,554.5 " fill="none" style="stroke:#000000;stroke-width:1.5;"/><line style="stroke:#000000;stroke-width:1.5;" x1="1837.5" x2="1924.1914" y1="576.7969" y2="576.7969"/><text fill="#000000" font-family="sans-serif" font-size="14" font-weight="bold" lengthAdjust="spacing" textLength="73.6914" x="1841.5" y="569.4951">tesseract</text></g><!--cluster database--><g id="cluster_database"><path d="M607,274.5 L680.9053,274.5 A3.75,3.75 0 0 1 683.4053,277 L690.4053,296.7969 L1011,296.7969 A2.5,2.5 0 0 1 1013.5,299.2969 L1013.5,659 A2.5,2.5 0 0 1 1011,661.5 L607,661.5 A2.5,2.5 0 0 1 604.5,659 L604.5,277 A2.5,2.5 0 0 1 607,274.5 " fill="none" style="stroke:#000000;stroke-width:1.5;"/><line style="stroke:#000000;stroke-width:1.5;" x1="604.5" x2="690.4053" y1="296.7969" y2="296.7969"/><text fill="#000000" font-family="sans-serif" font-size="14" font-weight="bold" lengthAdjust="spacing" textLength="72.9053" x="608.5" y="289.4951">database</text></g><!--class Main--><g id="elem_Main"><rect codeLine="6" fill="#F1F1F1" height="80.5938" id="Main" rx="2.5" ry="2.5" style="stroke:#181818;stroke-width:0.5;" width="253.1924" x="261" y="333.5"/><ellipse cx="366.6357" cy="349.5" fill="#ADD1B2" rx="11" ry="11" style="stroke:#181818;stroke-width:1.0;"/><path d="M369.6045,355.1406 Q369.0264,355.4375 368.3857,355.5781 Q367.7451,355.7344 367.042,355.7344 Q364.542,355.7344 363.2139,354.0938 Q361.9014,352.4375 361.9014,349.3125 Q361.9014,346.1875 363.2139,344.5313 Q364.542,342.875 367.042,342.875 Q367.7451,342.875 368.3857,343.0313 Q369.042,343.1875 369.6045,343.4844 L369.6045,346.2031 Q368.9795,345.625 368.3857,345.3594 Q367.792,345.0781 367.167,345.0781 Q365.8232,345.0781 365.1357,346.1563 Q364.4482,347.2188 364.4482,349.3125 Q364.4482,351.4063 365.1357,352.4844 Q365.8232,353.5469 367.167,353.5469 Q367.792,353.5469 368.3857,353.2813 Q368.9795,353 369.6045,352.4219 L369.6045,355.1406 Z " fill="#000000"/><text fill="#000000" font-family="sans-serif" font-size="14" lengthAdjust="spacing" textLength="33.4209" x="387.1357" y="354.3467">Main</text><line style="stroke:#181818;stroke-width:0.5;" x1="262" x2="513.1924" y1="365.5" y2="365.5"/><line style="stroke:#181818;stroke-width:0.5;" x1="262" x2="513.1924" y1="373.5" y2="373.5"/><ellipse cx="272" cy="387.1484" fill="#84BE84" rx="3" ry="3" style="stroke:#038048;stroke-width:1.0;"/><text fill="#000000" font-family="sans-serif" font-size="14" lengthAdjust="spacing" textLength="227.1924" x="281" y="390.4951">start(primaryStage: Stage): void</text><ellipse cx="272" cy="403.4453" fill="#84BE84" rx="3" ry="3" style="stroke:#038048;stroke-width:1.0;"/><text fill="#000000" font-family="sans-serif" font-size="14" lengthAdjust="spacing" textLength="177.085" x="281" y="406.792">main(args: String[]): void</text></g><!--class MainController--><g id="elem_MainController"><rect codeLine="11" fill="#F1F1F1" height="162.0781" id="MainController" rx="2.5" ry="2.5" style="stroke:#181818;stroke-width:0.5;" width="318.708" x="245" y="41"/><ellipse cx="348.8071" cy="57" fill="#ADD1B2" rx="11" ry="11" style="stroke:#181818;stroke-width:1.0;"/><path d="M351.7759,62.6406 Q351.1978,62.9375 350.5571,63.0781 Q349.9165,63.2344 349.2134,63.2344 Q346.7134,63.2344 345.3853,61.5938 Q344.0728,59.9375 344.0728,56.8125 Q344.0728,53.6875 345.3853,52.0313 Q346.7134,50.375 349.2134,50.375 Q349.9165,50.375 350.5571,50.5313 Q351.2134,50.6875 351.7759,50.9844 L351.7759,53.7031 Q351.1509,53.125 350.5571,52.8594 Q349.9634,52.5781 349.3384,52.5781 Q347.9946,52.5781 347.3071,53.6563 Q346.6196,54.7188 346.6196,56.8125 Q346.6196,58.9063 347.3071,59.9844 Q347.9946,61.0469 349.3384,61.0469 Q349.9634,61.0469 350.5571,60.7813 Q351.1509,60.5 351.7759,59.9219 L351.7759,62.6406 Z " fill="#000000"/><text fill="#000000" font-family="sans-serif" font-size="14" lengthAdjust="spacing" textLength="102.5938" x="369.3071" y="61.8467">MainController</text><line style="stroke:#181818;stroke-width:0.5;" x1="246" x2="562.708" y1="73" y2="73"/><rect fill="none" height="6" style="stroke:#C82930;stroke-width:1.0;" width="6" x="253" y="83.6484"/><text fill="#000000" font-family="sans-serif" font-size="14" lengthAdjust="spacing" textLength="139.7949" x="265" y="89.9951">selecao: ImageView</text><rect fill="none" height="6" style="stroke:#C82930;stroke-width:1.0;" width="6" x="253" y="99.9453"/><text fill="#000000" font-family="sans-serif" font-size="14" lengthAdjust="spacing" textLength="126.1436" x="265" y="106.292">filePath: TextField</text><rect fill="none" height="6" style="stroke:#C82930;stroke-width:1.0;" width="6" x="253" y="116.2422"/><text fill="#000000" font-family="sans-serif" font-size="14" lengthAdjust="spacing" textLength="127.7227" x="265" y="122.5889">statusLabel: Label</text><rect fill="none" height="6" style="stroke:#C82930;stroke-width:1.0;" width="6" x="253" y="132.5391"/><text fill="#000000" font-family="sans-serif" font-size="14" lengthAdjust="spacing" textLength="151.293" x="265" y="138.8857">buttonUpload: Button</text><line style="stroke:#181818;stroke-width:0.5;" x1="246" x2="562.708" y1="146.1875" y2="146.1875"/><ellipse cx="256" cy="159.8359" fill="#84BE84" rx="3" ry="3" style="stroke:#038048;stroke-width:1.0;"/><text fill="#000000" font-family="sans-serif" font-size="14" lengthAdjust="spacing" textLength="150.9375" x="265" y="163.1826">handleUpload (): void</text><ellipse cx="256" cy="176.1328" fill="#84BE84" rx="3" ry="3" style="stroke:#038048;stroke-width:1.0;"/><text fill="#000000" font-family="sans-serif" font-size="14" lengthAdjust="spacing" textLength="292.708" x="265" y="179.4795">handleDragOver (event: DragEvent): void</text><ellipse cx="256" cy="192.4297" fill="#84BE84" rx="3" ry="3" style="stroke:#038048;stroke-width:1.0;"/><text fill="#000000" font-family="sans-serif" font-size="14" lengthAdjust="spacing" textLength="259.0205" x="265" y="195.7764">handleDrop (event: DragEvent): void</text></g><!--class CustomModelType--><g id="elem_CustomModelType"><rect codeLine="25" fill="#F1F1F1" height="64.2969" id="CustomModelType" rx="2.5" ry="2.5" style="stroke:#181818;stroke-width:0.5;" width="162.0059" x="1344.5" y="796"/><ellipse cx="1359.5" cy="812" fill="#ADD1B2" rx="11" ry="11" style="stroke:#181818;stroke-width:1.0;"/><path d="M1362.4688,817.6406 Q1361.8906,817.9375 1361.25,818.0781 Q1360.6094,818.2344 1359.9063,818.2344 Q1357.4063,818.2344 1356.0781,816.5938 Q1354.7656,814.9375 1354.7656,811.8125 Q1354.7656,808.6875 1356.0781,807.0313 Q1357.4063,805.375 1359.9063,805.375 Q1360.6094,805.375 1361.25,805.5313 Q1361.9063,805.6875 1362.4688,805.9844 L1362.4688,808.7031 Q1361.8438,808.125 1361.25,807.8594 Q1360.6563,807.5781 1360.0313,807.5781 Q1358.6875,807.5781 1358,808.6563 Q1357.3125,809.7188 1357.3125,811.8125 Q1357.3125,813.9063 1358,814.9844 Q1358.6875,816.0469 1360.0313,816.0469 Q1360.6563,816.0469 1361.25,815.7813 Q1361.8438,815.5 1362.4688,814.9219 L1362.4688,817.6406 Z " fill="#000000"/><text fill="#000000" font-family="sans-serif" font-size="14" lengthAdjust="spacing" textLength="130.0059" x="1373.5" y="816.8467">CustomModelType</text><line style="stroke:#181818;stroke-width:0.5;" x1="1345.5" x2="1505.5059" y1="828" y2="828"/><ellipse cx="1355.5" cy="841.6484" fill="none" rx="3" ry="3" style="stroke:#038048;stroke-width:1.0;"/><text fill="#000000" font-family="sans-serif" font-size="14" lengthAdjust="spacing" textLength="123.5254" x="1364.5" y="844.9951">typeName: String</text><line style="stroke:#181818;stroke-width:0.5;" x1="1345.5" x2="1505.5059" y1="852.2969" y2="852.2969"/></g><!--class OllamaEngine--><g id="elem_OllamaEngine"><rect codeLine="29" fill="#F1F1F1" height="194.6719" id="OllamaEngine" rx="2.5" ry="2.5" style="stroke:#181818;stroke-width:0.5;" width="524.1758" x="1163.5" y="524"/><ellipse cx="1372.5498" cy="540" fill="#ADD1B2" rx="11" ry="11" style="stroke:#181818;stroke-width:1.0;"/><path d="M1375.5186,545.6406 Q1374.9404,545.9375 1374.2998,546.0781 Q1373.6592,546.2344 1372.9561,546.2344 Q1370.4561,546.2344 1369.1279,544.5938 Q1367.8154,542.9375 1367.8154,539.8125 Q1367.8154,536.6875 1369.1279,535.0313 Q1370.4561,533.375 1372.9561,533.375 Q1373.6592,533.375 1374.2998,533.5313 Q1374.9561,533.6875 1375.5186,533.9844 L1375.5186,536.7031 Q1374.8936,536.125 1374.2998,535.8594 Q1373.7061,535.5781 1373.0811,535.5781 Q1371.7373,535.5781 1371.0498,536.6563 Q1370.3623,537.7188 1370.3623,539.8125 Q1370.3623,541.9063 1371.0498,542.9844 Q1371.7373,544.0469 1373.0811,544.0469 Q1373.7061,544.0469 1374.2998,543.7813 Q1374.8936,543.5 1375.5186,542.9219 L1375.5186,545.6406 Z " fill="#000000"/><text fill="#000000" font-family="sans-serif" font-size="14" lengthAdjust="spacing" textLength="97.5762" x="1393.0498" y="544.8467">OllamaEngine</text><line style="stroke:#181818;stroke-width:0.5;" x1="1164.5" x2="1686.6758" y1="556" y2="556"/><rect fill="none" height="6" style="stroke:#C82930;stroke-width:1.0;" width="6" x="1171.5" y="566.6484"/><text fill="#000000" font-family="sans-serif" font-size="14" lengthAdjust="spacing" textLength="94.541" x="1183.5" y="572.9951">model: String</text><rect fill="none" height="6" style="stroke:#C82930;stroke-width:1.0;" width="6" x="1171.5" y="582.9453"/><text fill="#000000" font-family="sans-serif" font-size="14" lengthAdjust="spacing" textLength="128.9258" x="1183.5" y="589.292">temperature: float</text><line style="stroke:#181818;stroke-width:0.5;" x1="1164.5" x2="1686.6758" y1="596.5938" y2="596.5938"/><ellipse cx="1174.5" cy="610.2422" fill="#84BE84" rx="3" ry="3" style="stroke:#038048;stroke-width:1.0;"/><text fill="#000000" font-family="sans-serif" font-size="14" lengthAdjust="spacing" textLength="212.1396" x="1183.5" y="613.5889">setModel (model: String): void</text><ellipse cx="1174.5" cy="626.5391" fill="#84BE84" rx="3" ry="3" style="stroke:#038048;stroke-width:1.0;"/><text fill="#000000" font-family="sans-serif" font-size="14" lengthAdjust="spacing" textLength="131.3457" x="1183.5" y="629.8857">getModel (): String</text><ellipse cx="1174.5" cy="642.8359" fill="#84BE84" rx="3" ry="3" style="stroke:#038048;stroke-width:1.0;"/><text fill="#000000" font-family="sans-serif" font-size="14" lengthAdjust="spacing" textLength="295.8594" x="1183.5" y="646.1826">setTemperature (temperature: float): void</text><ellipse cx="1174.5" cy="659.1328" fill="#84BE84" rx="3" ry="3" style="stroke:#038048;stroke-width:1.0;"/><text fill="#000000" font-family="sans-serif" font-size="14" lengthAdjust="spacing" textLength="170.3516" x="1183.5" y="662.4795">getTemperature (): float</text><ellipse cx="1174.5" cy="675.4297" fill="#84BE84" rx="3" ry="3" style="stroke:#038048;stroke-width:1.0;"/><text fill="#000000" font-family="sans-serif" font-size="14" lengthAdjust="spacing" textLength="411.9951" x="1183.5" y="678.7764">generateAsyncAnswerFromPrompt (prompt: String): String</text><ellipse cx="1174.5" cy="691.7266" fill="#84BE84" rx="3" ry="3" style="stroke:#038048;stroke-width:1.0;"/><text fill="#000000" font-family="sans-serif" font-size="14" lengthAdjust="spacing" textLength="404.0107" x="1183.5" y="695.0732">generateSyncAnswerFromPrompt (prompt: String): String</text><ellipse cx="1174.5" cy="708.0234" fill="#84BE84" rx="3" ry="3" style="stroke:#038048;stroke-width:1.0;"/><text fill="#000000" font-family="sans-serif" font-size="14" lengthAdjust="spacing" textLength="498.1758" x="1183.5" y="711.3701">generateAnswerFromImage (prompt: String, imagePath: String): String</text></g><!--class ImageProcessor--><g id="elem_ImageProcessor"><rect codeLine="41" fill="#F1F1F1" height="145.7813" id="ImageProcessor" rx="2.5" ry="2.5" style="stroke:#181818;stroke-width:0.5;" width="743.2881" x="1054" y="301"/><ellipse cx="1365.4795" cy="317" fill="#ADD1B2" rx="11" ry="11" style="stroke:#181818;stroke-width:1.0;"/><path d="M1368.4482,322.6406 Q1367.8701,322.9375 1367.2295,323.0781 Q1366.5889,323.2344 1365.8857,323.2344 Q1363.3857,323.2344 1362.0576,321.5938 Q1360.7451,319.9375 1360.7451,316.8125 Q1360.7451,313.6875 1362.0576,312.0313 Q1363.3857,310.375 1365.8857,310.375 Q1366.5889,310.375 1367.2295,310.5313 Q1367.8857,310.6875 1368.4482,310.9844 L1368.4482,313.7031 Q1367.8232,313.125 1367.2295,312.8594 Q1366.6357,312.5781 1366.0107,312.5781 Q1364.667,312.5781 1363.9795,313.6563 Q1363.292,314.7188 1363.292,316.8125 Q1363.292,318.9063 1363.9795,319.9844 Q1364.667,321.0469 1366.0107,321.0469 Q1366.6357,321.0469 1367.2295,320.7813 Q1367.8232,320.5 1368.4482,319.9219 L1368.4482,322.6406 Z " fill="#000000"/><text fill="#000000" font-family="sans-serif" font-size="14" lengthAdjust="spacing" textLength="111.8291" x="1385.9795" y="321.8467">ImageProcessor</text><line style="stroke:#181818;stroke-width:0.5;" x1="1055" x2="1796.2881" y1="333" y2="333"/><rect fill="none" height="6" style="stroke:#C82930;stroke-width:1.0;" width="6" x="1062" y="343.6484"/><text fill="#000000" font-family="sans-serif" font-size="14" lengthAdjust="spacing" textLength="201.8652" x="1074" y="349.9951">ollamaEngine: OllamaEngine</text><rect fill="none" height="6" style="stroke:#C82930;stroke-width:1.0;" width="6" x="1062" y="359.9453"/><text fill="#000000" font-family="sans-serif" font-size="14" lengthAdjust="spacing" textLength="201.708" x="1074" y="366.292">tessEngine: TesseractEngine</text><line style="stroke:#181818;stroke-width:0.5;" x1="1055" x2="1796.2881" y1="373.5938" y2="373.5938"/><ellipse cx="1065" cy="387.2422" fill="#84BE84" rx="3" ry="3" style="stroke:#038048;stroke-width:1.0;"/><text fill="#000000" font-family="sans-serif" font-size="14" lengthAdjust="spacing" textLength="459.4912" x="1074" y="390.5889">processWithTesseract (imagePath: String, prompt: PrompBuilder)</text><ellipse cx="1065" cy="403.5391" fill="#84BE84" rx="3" ry="3" style="stroke:#038048;stroke-width:1.0;"/><text fill="#000000" font-family="sans-serif" font-size="14" lengthAdjust="spacing" textLength="426.5488" x="1074" y="406.8857">processWithVLM (imagePath: String, prompt: PromptBuilder)</text><ellipse cx="1065" cy="419.8359" fill="#84BE84" rx="3" ry="3" style="stroke:#038048;stroke-width:1.0;"/><text fill="#000000" font-family="sans-serif" font-size="14" lengthAdjust="spacing" textLength="717.2881" x="1074" y="423.1826">asyncProcessWithTesseract (imagePath: String, prompt: PromptBuilder, callback: Consumer&lt;String&gt;)</text><ellipse cx="1065" cy="436.1328" fill="#84BE84" rx="3" ry="3" style="stroke:#038048;stroke-width:1.0;"/><text fill="#000000" font-family="sans-serif" font-size="14" lengthAdjust="spacing" textLength="678.8564" x="1074" y="439.4795">asyncProcessWithVLM (imagePath: String, prompt: PromptBuilder, callback: Consumer&lt;String&gt;)</text></g><!--class TesseractEngine--><g id="elem_TesseractEngine"><rect codeLine="55" fill="#F1F1F1" height="64.2969" id="TesseractEngine" rx="2.5" ry="2.5" style="stroke:#181818;stroke-width:0.5;" width="378.9668" x="1853" y="589.5"/><ellipse cx="1980.2988" cy="605.5" fill="#ADD1B2" rx="11" ry="11" style="stroke:#181818;stroke-width:1.0;"/><path d="M1983.2676,611.1406 Q1982.6895,611.4375 1982.0488,611.5781 Q1981.4082,611.7344 1980.7051,611.7344 Q1978.2051,611.7344 1976.877,610.0938 Q1975.5645,608.4375 1975.5645,605.3125 Q1975.5645,602.1875 1976.877,600.5313 Q1978.2051,598.875 1980.7051,598.875 Q1981.4082,598.875 1982.0488,599.0313 Q1982.7051,599.1875 1983.2676,599.4844 L1983.2676,602.2031 Q1982.6426,601.625 1982.0488,601.3594 Q1981.4551,601.0781 1980.8301,601.0781 Q1979.4863,601.0781 1978.7988,602.1563 Q1978.1113,603.2188 1978.1113,605.3125 Q1978.1113,607.4063 1978.7988,608.4844 Q1979.4863,609.5469 1980.8301,609.5469 Q1981.4551,609.5469 1982.0488,609.2813 Q1982.6426,609 1983.2676,608.4219 L1983.2676,611.1406 Z " fill="#000000"/><text fill="#000000" font-family="sans-serif" font-size="14" lengthAdjust="spacing" textLength="115.8691" x="2000.7988" y="610.3467">TesseractEngine</text><line style="stroke:#181818;stroke-width:0.5;" x1="1854" x2="2230.9668" y1="621.5" y2="621.5"/><line style="stroke:#181818;stroke-width:0.5;" x1="1854" x2="2230.9668" y1="629.5" y2="629.5"/><ellipse cx="1864" cy="643.1484" fill="#84BE84" rx="3" ry="3" style="stroke:#038048;stroke-width:1.0;"/><text fill="#000000" font-family="sans-serif" font-size="14" lengthAdjust="spacing" textLength="352.9668" x="1873" y="646.4951">extractTextFromImage (imagePath: String): String</text></g><!--class DatabaseConnection--><g id="elem_DatabaseConnection"><rect codeLine="61" fill="#F1F1F1" height="129.4844" id="DatabaseConnection" rx="2.5" ry="2.5" style="stroke:#181818;stroke-width:0.5;" width="236.4102" x="645.5" y="309.5"/><ellipse cx="686.7775" cy="325.5" fill="#ADD1B2" rx="11" ry="11" style="stroke:#181818;stroke-width:1.0;"/><path d="M689.7463,331.1406 Q689.1682,331.4375 688.5275,331.5781 Q687.8869,331.7344 687.1838,331.7344 Q684.6838,331.7344 683.3557,330.0938 Q682.0432,328.4375 682.0432,325.3125 Q682.0432,322.1875 683.3557,320.5313 Q684.6838,318.875 687.1838,318.875 Q687.8869,318.875 688.5275,319.0313 Q689.1838,319.1875 689.7463,319.4844 L689.7463,322.2031 Q689.1213,321.625 688.5275,321.3594 Q687.9338,321.0781 687.3088,321.0781 Q685.965,321.0781 685.2775,322.1563 Q684.59,323.2188 684.59,325.3125 Q684.59,327.4063 685.2775,328.4844 Q685.965,329.5469 687.3088,329.5469 Q687.9338,329.5469 688.5275,329.2813 Q689.1213,329 689.7463,328.4219 L689.7463,331.1406 Z " fill="#000000"/><text fill="#000000" font-family="sans-serif" font-size="14" lengthAdjust="spacing" textLength="146.0156" x="706.617" y="330.3467">DatabaseConnection</text><line style="stroke:#181818;stroke-width:0.5;" x1="646.5" x2="880.9102" y1="341.5" y2="341.5"/><rect fill="none" height="6" style="stroke:#C82930;stroke-width:1.0;" width="6" x="653.5" y="352.1484"/><text fill="#000000" font-family="sans-serif" font-size="14" lengthAdjust="spacing" textLength="69.4668" x="665.5" y="358.4951">url: String</text><rect fill="none" height="6" style="stroke:#C82930;stroke-width:1.0;" width="6" x="653.5" y="368.4453"/><text fill="#000000" font-family="sans-serif" font-size="14" lengthAdjust="spacing" textLength="81.4844" x="665.5" y="374.792">user: String</text><rect fill="none" height="6" style="stroke:#C82930;stroke-width:1.0;" width="6" x="653.5" y="384.7422"/><text fill="#000000" font-family="sans-serif" font-size="14" lengthAdjust="spacing" textLength="117.6602" x="665.5" y="391.0889">password: String</text><line style="stroke:#181818;stroke-width:0.5;" x1="646.5" x2="880.9102" y1="398.3906" y2="398.3906"/><ellipse cx="656.5" cy="412.0391" fill="#84BE84" rx="3" ry="3" style="stroke:#038048;stroke-width:1.0;"/><text fill="#000000" font-family="sans-serif" font-size="14" lengthAdjust="spacing" textLength="200.2588" x="665.5" y="415.3857">loadDatabaseConfig () : void</text><ellipse cx="656.5" cy="428.3359" fill="#84BE84" rx="3" ry="3" style="stroke:#038048;stroke-width:1.0;"/><text fill="#000000" font-family="sans-serif" font-size="14" lengthAdjust="spacing" textLength="210.4102" x="665.5" y="431.6826">getConnection () : Connection</text></g><!--class Pessoa--><g id="elem_Pessoa"><rect codeLine="69" fill="#F1F1F1" height="48" id="Pessoa" rx="2.5" ry="2.5" style="stroke:#181818;stroke-width:0.5;" width="80.7881" x="621" y="597.5"/><ellipse cx="636" cy="613.5" fill="#ADD1B2" rx="11" ry="11" style="stroke:#181818;stroke-width:1.0;"/><path d="M638.9688,619.1406 Q638.3906,619.4375 637.75,619.5781 Q637.1094,619.7344 636.4063,619.7344 Q633.9063,619.7344 632.5781,618.0938 Q631.2656,616.4375 631.2656,613.3125 Q631.2656,610.1875 632.5781,608.5313 Q633.9063,606.875 636.4063,606.875 Q637.1094,606.875 637.75,607.0313 Q638.4063,607.1875 638.9688,607.4844 L638.9688,610.2031 Q638.3438,609.625 637.75,609.3594 Q637.1563,609.0781 636.5313,609.0781 Q635.1875,609.0781 634.5,610.1563 Q633.8125,611.2188 633.8125,613.3125 Q633.8125,615.4063 634.5,616.4844 Q635.1875,617.5469 636.5313,617.5469 Q637.1563,617.5469 637.75,617.2813 Q638.3438,617 638.9688,616.4219 L638.9688,619.1406 Z " fill="#000000"/><text fill="#000000" font-family="sans-serif" font-size="14" lengthAdjust="spacing" textLength="48.7881" x="650" y="618.3467">Pessoa</text><line style="stroke:#181818;stroke-width:0.5;" x1="622" x2="700.7881" y1="629.5" y2="629.5"/><line style="stroke:#181818;stroke-width:0.5;" x1="622" x2="700.7881" y1="637.5" y2="637.5"/></g><!--class RG--><g id="elem_RG"><rect codeLine="73" fill="#F1F1F1" height="48" id="RG" rx="2.5" ry="2.5" style="stroke:#181818;stroke-width:0.5;" width="52.5762" x="737" y="597.5"/><ellipse cx="752" cy="613.5" fill="#ADD1B2" rx="11" ry="11" style="stroke:#181818;stroke-width:1.0;"/><path d="M754.9688,619.1406 Q754.3906,619.4375 753.75,619.5781 Q753.1094,619.7344 752.4063,619.7344 Q749.9063,619.7344 748.5781,618.0938 Q747.2656,616.4375 747.2656,613.3125 Q747.2656,610.1875 748.5781,608.5313 Q749.9063,606.875 752.4063,606.875 Q753.1094,606.875 753.75,607.0313 Q754.4063,607.1875 754.9688,607.4844 L754.9688,610.2031 Q754.3438,609.625 753.75,609.3594 Q753.1563,609.0781 752.5313,609.0781 Q751.1875,609.0781 750.5,610.1563 Q749.8125,611.2188 749.8125,613.3125 Q749.8125,615.4063 750.5,616.4844 Q751.1875,617.5469 752.5313,617.5469 Q753.1563,617.5469 753.75,617.2813 Q754.3438,617 754.9688,616.4219 L754.9688,619.1406 Z " fill="#000000"/><text fill="#000000" font-family="sans-serif" font-size="14" lengthAdjust="spacing" textLength="20.5762" x="766" y="618.3467">RG</text><line style="stroke:#181818;stroke-width:0.5;" x1="738" x2="788.5762" y1="629.5" y2="629.5"/><line style="stroke:#181818;stroke-width:0.5;" x1="738" x2="788.5762" y1="637.5" y2="637.5"/></g><!--class CNH--><g id="elem_CNH"><rect codeLine="77" fill="#F1F1F1" height="48" id="CNH" rx="2.5" ry="2.5" style="stroke:#181818;stroke-width:0.5;" width="62.7754" x="825" y="597.5"/><ellipse cx="840" cy="613.5" fill="#ADD1B2" rx="11" ry="11" style="stroke:#181818;stroke-width:1.0;"/><path d="M842.9688,619.1406 Q842.3906,619.4375 841.75,619.5781 Q841.1094,619.7344 840.4063,619.7344 Q837.9063,619.7344 836.5781,618.0938 Q835.2656,616.4375 835.2656,613.3125 Q835.2656,610.1875 836.5781,608.5313 Q837.9063,606.875 840.4063,606.875 Q841.1094,606.875 841.75,607.0313 Q842.4063,607.1875 842.9688,607.4844 L842.9688,610.2031 Q842.3438,609.625 841.75,609.3594 Q841.1563,609.0781 840.5313,609.0781 Q839.1875,609.0781 838.5,610.1563 Q837.8125,611.2188 837.8125,613.3125 Q837.8125,615.4063 838.5,616.4844 Q839.1875,617.5469 840.5313,617.5469 Q841.1563,617.5469 841.75,617.2813 Q842.3438,617 842.9688,616.4219 L842.9688,619.1406 Z " fill="#000000"/><text fill="#000000" font-family="sans-serif" font-size="14" lengthAdjust="spacing" textLength="30.7754" x="854" y="618.3467">CNH</text><line style="stroke:#181818;stroke-width:0.5;" x1="826" x2="886.7754" y1="629.5" y2="629.5"/><line style="stroke:#181818;stroke-width:0.5;" x1="826" x2="886.7754" y1="637.5" y2="637.5"/></g><!--class CRNM--><g id="elem_CRNM"><rect codeLine="81" fill="#F1F1F1" height="48" id="CRNM" rx="2.5" ry="2.5" style="stroke:#181818;stroke-width:0.5;" width="74.0547" x="923.5" y="597.5"/><ellipse cx="938.5" cy="613.5" fill="#ADD1B2" rx="11" ry="11" style="stroke:#181818;stroke-width:1.0;"/><path d="M941.4688,619.1406 Q940.8906,619.4375 940.25,619.5781 Q939.6094,619.7344 938.9063,619.7344 Q936.4063,619.7344 935.0781,618.0938 Q933.7656,616.4375 933.7656,613.3125 Q933.7656,610.1875 935.0781,608.5313 Q936.4063,606.875 938.9063,606.875 Q939.6094,606.875 940.25,607.0313 Q940.9063,607.1875 941.4688,607.4844 L941.4688,610.2031 Q940.8438,609.625 940.25,609.3594 Q939.6563,609.0781 939.0313,609.0781 Q937.6875,609.0781 937,610.1563 Q936.3125,611.2188 936.3125,613.3125 Q936.3125,615.4063 937,616.4844 Q937.6875,617.5469 939.0313,617.5469 Q939.6563,617.5469 940.25,617.2813 Q940.8438,617 941.4688,616.4219 L941.4688,619.1406 Z " fill="#000000"/><text fill="#000000" font-family="sans-serif" font-size="14" lengthAdjust="spacing" textLength="42.0547" x="952.5" y="618.3467">CRNM</text><line style="stroke:#181818;stroke-width:0.5;" x1="924.5" x2="996.5547" y1="629.5" y2="629.5"/><line style="stroke:#181818;stroke-width:0.5;" x1="924.5" x2="996.5547" y1="637.5" y2="637.5"/></g><!--class App--><g id="elem_App"><rect codeLine="1" fill="#F1F1F1" height="64.2969" id="App" rx="2.5" ry="2.5" style="stroke:#181818;stroke-width:0.5;" width="203.085" x="7" y="90"/><ellipse cx="90.6172" cy="106" fill="#ADD1B2" rx="11" ry="11" style="stroke:#181818;stroke-width:1.0;"/><path d="M93.5859,111.6406 Q93.0078,111.9375 92.3672,112.0781 Q91.7266,112.2344 91.0234,112.2344 Q88.5234,112.2344 87.1953,110.5938 Q85.8828,108.9375 85.8828,105.8125 Q85.8828,102.6875 87.1953,101.0313 Q88.5234,99.375 91.0234,99.375 Q91.7266,99.375 92.3672,99.5313 Q93.0234,99.6875 93.5859,99.9844 L93.5859,102.7031 Q92.9609,102.125 92.3672,101.8594 Q91.7734,101.5781 91.1484,101.5781 Q89.8047,101.5781 89.1172,102.6563 Q88.4297,103.7188 88.4297,105.8125 Q88.4297,107.9063 89.1172,108.9844 Q89.8047,110.0469 91.1484,110.0469 Q91.7734,110.0469 92.3672,109.7813 Q92.9609,109.5 93.5859,108.9219 L93.5859,111.6406 Z " fill="#000000"/><text fill="#000000" font-family="sans-serif" font-size="14" lengthAdjust="spacing" textLength="27.3506" x="111.1172" y="110.8467">App</text><line style="stroke:#181818;stroke-width:0.5;" x1="8" x2="209.085" y1="122" y2="122"/><line style="stroke:#181818;stroke-width:0.5;" x1="8" x2="209.085" y1="130" y2="130"/><ellipse cx="18" cy="143.6484" fill="#84BE84" rx="3" ry="3" style="stroke:#038048;stroke-width:1.0;"/><text fill="#000000" font-family="sans-serif" font-size="14" lengthAdjust="spacing" textLength="177.085" x="27" y="146.9951">main(args: String[]): void</text></g><!--link MainController to Main--><g id="link_MainController_Main"><path codeLine="21" d="M399.05,203.13 C396.1,246.55 392.9867,292.3038 390.6167,327.1838 " fill="none" id="MainController-to-Main" style="stroke:#181818;stroke-width:1.0;"/><polygon fill="#181818" points="390.21,333.17,394.8109,324.4619,390.549,328.1815,386.8293,323.9195,390.21,333.17" style="stroke:#181818;stroke-width:1.0;"/><text fill="#000000" font-family="sans-serif" font-size="13" lengthAdjust="spacing" textLength="52.1206" x="397.5" y="246.0669">controls</text></g><!--link ImageProcessor to OllamaEngine--><g id="link_ImageProcessor_OllamaEngine"><path codeLine="50" d="M1425.5,447.33 C1425.5,471.23 1425.5,492.22 1425.5,517.66 " fill="none" id="ImageProcessor-to-OllamaEngine" style="stroke:#181818;stroke-width:1.0;"/><polygon fill="#181818" points="1425.5,523.66,1429.5,514.66,1425.5,518.66,1421.5,514.66,1425.5,523.66" style="stroke:#181818;stroke-width:1.0;"/><text fill="#000000" font-family="sans-serif" font-size="13" lengthAdjust="spacing" textLength="30.2783" x="1426.5" y="490.0669">start</text></g><!--link OllamaEngine to CustomModelType--><g id="link_OllamaEngine_CustomModelType"><path codeLine="51" d="M1425.5,719.06 C1425.5,746.78 1425.5,769.05 1425.5,789.71 " fill="none" id="OllamaEngine-to-CustomModelType" style="stroke:#181818;stroke-width:1.0;"/><polygon fill="#181818" points="1425.5,795.71,1429.5,786.71,1425.5,790.71,1421.5,786.71,1425.5,795.71" style="stroke:#181818;stroke-width:1.0;"/><text fill="#000000" font-family="sans-serif" font-size="13" lengthAdjust="spacing" textLength="29.7832" x="1426.5" y="762.0669">uses</text></g><!--link DatabaseConnection to Pessoa--><g id="link_DatabaseConnection_Pessoa"><path codeLine="85" d="M728.5,438.77 C722.17,451.29 715.88,464.43 710.5,477 C692.75,518.51 678.5134,563.0628 669.9134,591.7428 " fill="none" id="DatabaseConnection-to-Pessoa" style="stroke:#181818;stroke-width:1.0;"/><polygon fill="#181818" points="668.19,597.49,674.6065,590.0181,669.6261,592.7007,666.9436,587.7203,668.19,597.49" style="stroke:#181818;stroke-width:1.0;"/><text fill="#000000" font-family="sans-serif" font-size="13" lengthAdjust="spacing" textLength="43.8052" x="711.5" y="490.0669">access</text></g><!--link DatabaseConnection to RG--><g id="link_DatabaseConnection_RG"><path codeLine="86" d="M763.5,438.54 C763.5,490.54 763.5,555.18 763.5,591.24 " fill="none" id="DatabaseConnection-to-RG" style="stroke:#181818;stroke-width:1.0;"/><polygon fill="#181818" points="763.5,597.24,767.5,588.24,763.5,592.24,759.5,588.24,763.5,597.24" style="stroke:#181818;stroke-width:1.0;"/><text fill="#000000" font-family="sans-serif" font-size="13" lengthAdjust="spacing" textLength="43.8052" x="764.5" y="490.0669">access</text></g><!--link DatabaseConnection to CNH--><g id="link_DatabaseConnection_CNH"><path codeLine="87" d="M796.74,438.76 C802.7,451.27 808.57,464.42 813.5,477 C829.77,518.53 842.0557,563.0065 849.3757,591.6765 " fill="none" id="DatabaseConnection-to-CNH" style="stroke:#181818;stroke-width:1.0;"/><polygon fill="#181818" points="850.86,597.49,852.5092,587.7802,849.6231,592.6454,844.7579,589.7593,850.86,597.49" style="stroke:#181818;stroke-width:1.0;"/><text fill="#000000" font-family="sans-serif" font-size="13" lengthAdjust="spacing" textLength="43.8052" x="819.5" y="490.0669">access</text></g><!--link DatabaseConnection to CRNM--><g id="link_DatabaseConnection_CRNM"><path codeLine="88" d="M834.83,438.73 C847.47,451.03 860.19,464.11 871.5,477 C888.5,496.38 891.54,502.32 905.5,524 C921.27,548.48 934.7144,572.3831 945.4344,592.1931 " fill="none" id="DatabaseConnection-to-CRNM" style="stroke:#181818;stroke-width:1.0;"/><polygon fill="#181818" points="948.29,597.47,947.5246,587.6509,945.9104,593.0726,940.4887,591.4583,948.29,597.47" style="stroke:#181818;stroke-width:1.0;"/><text fill="#000000" font-family="sans-serif" font-size="13" lengthAdjust="spacing" textLength="43.8052" x="885.5" y="490.0669">access</text></g><!--link MainController to ImageProcessor--><g id="link_MainController_ImageProcessor"><path codeLine="92" d="M564.05,155.9 C687.23,181.9 861.69,220.02 1013.5,258 C1066.18,271.18 1116.5968,284.6118 1170.0068,299.3718 " fill="none" id="MainController-to-ImageProcessor" style="stroke:#181818;stroke-width:1.0;"/><polygon fill="#181818" points="1175.79,300.97,1168.1806,294.7172,1170.9706,299.6382,1166.0497,302.4282,1175.79,300.97" style="stroke:#181818;stroke-width:1.0;"/><text fill="#000000" font-family="sans-serif" font-size="13" lengthAdjust="spacing" textLength="58.9443" x="981.5" y="246.0669">executes</text></g><!--link MainController to DatabaseConnection--><g id="link_MainController_DatabaseConnection"><path codeLine="93" d="M519.57,203.13 C568.9,237.48 620.7763,273.6111 667.1563,305.9111 " fill="none" id="MainController-to-DatabaseConnection" style="stroke:#181818;stroke-width:1.0;"/><polygon fill="#181818" points="672.08,309.34,666.9805,300.9142,667.977,306.4826,662.4086,307.479,672.08,309.34" style="stroke:#181818;stroke-width:1.0;"/><text fill="#000000" font-family="sans-serif" font-size="13" lengthAdjust="spacing" textLength="29.7832" x="584.5" y="246.0669">uses</text></g><!--link ImageProcessor to TesseractEngine--><g id="link_ImageProcessor_TesseractEngine"><path codeLine="94" d="M1616.91,447.11 C1679.72,471.14 1749.74,498.33 1813.5,524 C1866.33,545.27 1920.0424,567.9029 1965.0324,587.1229 " fill="none" id="ImageProcessor-to-TesseractEngine" style="stroke:#181818;stroke-width:1.0;"/><polygon fill="#181818" points="1970.55,589.48,1963.845,582.2659,1965.952,587.5157,1960.7022,589.6227,1970.55,589.48" style="stroke:#181818;stroke-width:1.0;"/><text fill="#000000" font-family="sans-serif" font-size="13" lengthAdjust="spacing" textLength="30.2783" x="1729.5" y="490.0669">start</text></g><!--link App to Main--><g id="link_App_Main"><path codeLine="95" d="M143.27,154.16 C193.81,199.45 283.1114,279.4661 338.6014,329.1861 " fill="none" id="App-to-Main" style="stroke:#181818;stroke-width:1.0;"/><polygon fill="#181818" points="343.07,333.19,339.0364,324.205,339.3462,329.8534,333.6978,330.1631,343.07,333.19" style="stroke:#181818;stroke-width:1.0;"/><text fill="#000000" font-family="sans-serif" font-size="13" lengthAdjust="spacing" textLength="58.9443" x="248.5" y="246.0669">executes</text></g><!--SRC=[fLPHJzim47xlhxZ7LC0Vi2OaAB1Deb11nnuc7jpa2DQSEB8T69hsttTsajPEl9PjbQgavxllkzntTsakkJ5mrZJmSmRqEOAAYphZkZGCxgqMTVdjSSxWHObYzcisQtZ-dPS8PIlwYDmZB2cgDtGmnd9jiqQBYkktUqin3eyk0zZETG-ZSo3Mc6UXQgkLbAW3nXCmA37dYi7dYcWU1Bu6Xqz2uehRPmPh_66l1CeY3BNSjkQQRr0oy1S8JZUjjQh-qaZ52mRd_bUG_ZEl2udTCMJJn-lEBpGlRryevGnViBOCdE7ItVuvGZNxlVlAZ6foSdBQoS4WxwmcL8wSUCKZyHQjiQfQgWBb-gt1I4TBXXjUuQ3DL99R3tXPbwB6I93A0KPndTrYrQ2cYcj2VQAosR1lqFf488l2fqKgjuxp2OU7MUze89jo9X6ZcFaqkn9hTundvgtEpshpYlfAgsf5tyO2jRkx1ZbFyXe0xlypVXVhktqSUWp2cRkEJw552de8oY57OrGyL2eGbqLIHu8QCxYiwPuopEt8wmYQZk2hiCzR9yWcUHx3y2Y-AkUja0NgUHheuNfv6C8cCBWJSFLF6Grmnv1pAJSqLWne_4nReVxGHPpke_ghd0-Jz4gED7HBu3RIpYzaxneDh7CSpp-3rc2qDEosFE7U66aTxGtQikx4RzjTbnxioe2pu9PlkC68yg8tKYrgpArGTTIkhKuj77eQdJ0t1FYgT94OCxVB0wedKT8wWDJ621Bn7hlVeJeBd_pAQUDMxtG4xpucpOkRJsdxtSroT92eZDEsvsJ0SzSQ-rmfX_UukPpUvUTot3ewPHClghXj6RKDvYrrMyftojCtQgBtHwqvjB_xenEy7mUstm00]--></g></svg>