<svg xmlns="http://www.w3.org/2000/svg" xmlns:xlink="http://www.w3.org/1999/xlink" contentStyleType="text/css" height="603px" preserveAspectRatio="none" style="width:1746px;height:603px;background:#FFFFFF;" version="1.1" viewBox="0 0 1746 603" width="1746px" zoomAndPan="magnify"><defs/><g><!--cluster gui--><g id="cluster_gui"><path d="M1455.5,6 L1481.2871,6 A3.75,3.75 0 0 1 1483.7871,8.5 L1490.7871,28.2969 L1736.5,28.2969 A2.5,2.5 0 0 1 1739,30.7969 L1739,395.5 A2.5,2.5 0 0 1 1736.5,398 L1455.5,398 A2.5,2.5 0 0 1 1453,395.5 L1453,8.5 A2.5,2.5 0 0 1 1455.5,6 " fill="none" style="stroke:#000000;stroke-width:1.5;"/><line style="stroke:#000000;stroke-width:1.5;" x1="1453" x2="1490.7871" y1="28.2969" y2="28.2969"/><text fill="#000000" font-family="sans-serif" font-size="14" font-weight="bold" lengthAdjust="spacing" textLength="24.7871" x="1457" y="20.9951">gui</text></g><!--cluster ollama--><g id="cluster_ollama"><path d="M8.5,209 L62.1982,209 A3.75,3.75 0 0 1 64.6982,211.5 L71.6982,231.2969 L559.5,231.2969 A2.5,2.5 0 0 1 562,233.7969 L562,593.5 A2.5,2.5 0 0 1 559.5,596 L8.5,596 A2.5,2.5 0 0 1 6,593.5 L6,211.5 A2.5,2.5 0 0 1 8.5,209 " fill="none" style="stroke:#000000;stroke-width:1.5;"/><line style="stroke:#000000;stroke-width:1.5;" x1="6" x2="71.6982" y1="231.2969" y2="231.2969"/><text fill="#000000" font-family="sans-serif" font-size="14" font-weight="bold" lengthAdjust="spacing" textLength="52.6982" x="10" y="223.9951">ollama</text></g><!--cluster tesseract--><g id="cluster_tesseract"><path d="M588.5,274.5 L663.1914,274.5 A3.75,3.75 0 0 1 665.6914,277 L672.6914,296.7969 L993.5,296.7969 A2.5,2.5 0 0 1 996,299.2969 L996,387 A2.5,2.5 0 0 1 993.5,389.5 L588.5,389.5 A2.5,2.5 0 0 1 586,387 L586,277 A2.5,2.5 0 0 1 588.5,274.5 " fill="none" style="stroke:#000000;stroke-width:1.5;"/><line style="stroke:#000000;stroke-width:1.5;" x1="586" x2="672.6914" y1="296.7969" y2="296.7969"/><text fill="#000000" font-family="sans-serif" font-size="14" font-weight="bold" lengthAdjust="spacing" textLength="73.6914" x="590" y="289.4951">tesseract</text></g><!--cluster database--><g id="cluster_database"><path d="M1022.5,242 L1096.4053,242 A3.75,3.75 0 0 1 1098.9053,244.5 L1105.9053,264.2969 L1426.5,264.2969 A2.5,2.5 0 0 1 1429,266.7969 L1429,585.5 A2.5,2.5 0 0 1 1426.5,588 L1022.5,588 A2.5,2.5 0 0 1 1020,585.5 L1020,244.5 A2.5,2.5 0 0 1 1022.5,242 " fill="none" style="stroke:#000000;stroke-width:1.5;"/><line style="stroke:#000000;stroke-width:1.5;" x1="1020" x2="1105.9053" y1="264.2969" y2="264.2969"/><text fill="#000000" font-family="sans-serif" font-size="14" font-weight="bold" lengthAdjust="spacing" textLength="72.9053" x="1024" y="256.9951">database</text></g><!--class Main--><g id="elem_Main"><rect codeLine="9" fill="#F1F1F1" height="80.5938" id="Main" rx="2.5" ry="2.5" style="stroke:#181818;stroke-width:0.5;" width="253.1924" x="1469.5" y="301"/><ellipse cx="1575.1357" cy="317" fill="#ADD1B2" rx="11" ry="11" style="stroke:#181818;stroke-width:1.0;"/><path d="M1578.1045,322.6406 Q1577.5264,322.9375 1576.8857,323.0781 Q1576.2451,323.2344 1575.542,323.2344 Q1573.042,323.2344 1571.7139,321.5938 Q1570.4014,319.9375 1570.4014,316.8125 Q1570.4014,313.6875 1571.7139,312.0313 Q1573.042,310.375 1575.542,310.375 Q1576.2451,310.375 1576.8857,310.5313 Q1577.542,310.6875 1578.1045,310.9844 L1578.1045,313.7031 Q1577.4795,313.125 1576.8857,312.8594 Q1576.292,312.5781 1575.667,312.5781 Q1574.3232,312.5781 1573.6357,313.6563 Q1572.9482,314.7188 1572.9482,316.8125 Q1572.9482,318.9063 1573.6357,319.9844 Q1574.3232,321.0469 1575.667,321.0469 Q1576.292,321.0469 1576.8857,320.7813 Q1577.4795,320.5 1578.1045,319.9219 L1578.1045,322.6406 Z " fill="#000000"/><text fill="#000000" font-family="sans-serif" font-size="14" lengthAdjust="spacing" textLength="33.4209" x="1595.6357" y="321.8467">Main</text><line style="stroke:#181818;stroke-width:0.5;" x1="1470.5" x2="1721.6924" y1="333" y2="333"/><line style="stroke:#181818;stroke-width:0.5;" x1="1470.5" x2="1721.6924" y1="341" y2="341"/><ellipse cx="1480.5" cy="354.6484" fill="#84BE84" rx="3" ry="3" style="stroke:#038048;stroke-width:1.0;"/><text fill="#000000" font-family="sans-serif" font-size="14" lengthAdjust="spacing" textLength="227.1924" x="1489.5" y="357.9951">start(primaryStage: Stage): void</text><ellipse cx="1480.5" cy="370.9453" fill="#84BE84" rx="3" ry="3" style="stroke:#038048;stroke-width:1.0;"/><text fill="#000000" font-family="sans-serif" font-size="14" lengthAdjust="spacing" textLength="177.085" x="1489.5" y="374.292">main(args: String[]): void</text></g><!--class MainController--><g id="elem_MainController"><rect codeLine="14" fill="#F1F1F1" height="96.8906" id="MainController" rx="2.5" ry="2.5" style="stroke:#181818;stroke-width:0.5;" width="172.4873" x="1510" y="41"/><ellipse cx="1542.0521" cy="57" fill="#ADD1B2" rx="11" ry="11" style="stroke:#181818;stroke-width:1.0;"/><path d="M1545.0208,62.6406 Q1544.4427,62.9375 1543.8021,63.0781 Q1543.1615,63.2344 1542.4583,63.2344 Q1539.9583,63.2344 1538.6302,61.5938 Q1537.3177,59.9375 1537.3177,56.8125 Q1537.3177,53.6875 1538.6302,52.0313 Q1539.9583,50.375 1542.4583,50.375 Q1543.1615,50.375 1543.8021,50.5313 Q1544.4583,50.6875 1545.0208,50.9844 L1545.0208,53.7031 Q1544.3958,53.125 1543.8021,52.8594 Q1543.2083,52.5781 1542.5833,52.5781 Q1541.2396,52.5781 1540.5521,53.6563 Q1539.8646,54.7188 1539.8646,56.8125 Q1539.8646,58.9063 1540.5521,59.9844 Q1541.2396,61.0469 1542.5833,61.0469 Q1543.2083,61.0469 1543.8021,60.7813 Q1544.3958,60.5 1545.0208,59.9219 L1545.0208,62.6406 Z " fill="#000000"/><text fill="#000000" font-family="sans-serif" font-size="14" lengthAdjust="spacing" textLength="102.5938" x="1559.8415" y="61.8467">MainController</text><line style="stroke:#181818;stroke-width:0.5;" x1="1511" x2="1681.4873" y1="73" y2="73"/><rect fill="none" height="6" style="stroke:#C82930;stroke-width:1.0;" width="6" x="1518" y="83.6484"/><text fill="#000000" font-family="sans-serif" font-size="14" lengthAdjust="spacing" textLength="126.1436" x="1530" y="89.9951">filePath: TextField</text><ellipse cx="1521" cy="102.9453" fill="none" rx="3" ry="3" style="stroke:#038048;stroke-width:1.0;"/><text fill="#000000" font-family="sans-serif" font-size="14" lengthAdjust="spacing" textLength="127.7227" x="1530" y="106.292">statusLabel: Label</text><line style="stroke:#181818;stroke-width:0.5;" x1="1511" x2="1681.4873" y1="113.5938" y2="113.5938"/><ellipse cx="1521" cy="127.2422" fill="#84BE84" rx="3" ry="3" style="stroke:#038048;stroke-width:1.0;"/><text fill="#000000" font-family="sans-serif" font-size="14" lengthAdjust="spacing" textLength="146.4873" x="1530" y="130.5889">handleUpload(): void</text></g><!--class CustomModelType--><g id="elem_CustomModelType"><rect codeLine="24" fill="#F1F1F1" height="64.2969" id="CustomModelType" rx="2.5" ry="2.5" style="stroke:#181818;stroke-width:0.5;" width="162.0059" x="203" y="516"/><ellipse cx="218" cy="532" fill="#ADD1B2" rx="11" ry="11" style="stroke:#181818;stroke-width:1.0;"/><path d="M220.9688,537.6406 Q220.3906,537.9375 219.75,538.0781 Q219.1094,538.2344 218.4063,538.2344 Q215.9063,538.2344 214.5781,536.5938 Q213.2656,534.9375 213.2656,531.8125 Q213.2656,528.6875 214.5781,527.0313 Q215.9063,525.375 218.4063,525.375 Q219.1094,525.375 219.75,525.5313 Q220.4063,525.6875 220.9688,525.9844 L220.9688,528.7031 Q220.3438,528.125 219.75,527.8594 Q219.1563,527.5781 218.5313,527.5781 Q217.1875,527.5781 216.5,528.6563 Q215.8125,529.7188 215.8125,531.8125 Q215.8125,533.9063 216.5,534.9844 Q217.1875,536.0469 218.5313,536.0469 Q219.1563,536.0469 219.75,535.7813 Q220.3438,535.5 220.9688,534.9219 L220.9688,537.6406 Z " fill="#000000"/><text fill="#000000" font-family="sans-serif" font-size="14" lengthAdjust="spacing" textLength="130.0059" x="232" y="536.8467">CustomModelType</text><line style="stroke:#181818;stroke-width:0.5;" x1="204" x2="364.0059" y1="548" y2="548"/><ellipse cx="214" cy="561.6484" fill="none" rx="3" ry="3" style="stroke:#038048;stroke-width:1.0;"/><text fill="#000000" font-family="sans-serif" font-size="14" lengthAdjust="spacing" textLength="123.5254" x="223" y="564.9951">typeName: String</text><line style="stroke:#181818;stroke-width:0.5;" x1="204" x2="364.0059" y1="572.2969" y2="572.2969"/></g><!--class OllamaEngine--><g id="elem_OllamaEngine"><rect codeLine="28" fill="#F1F1F1" height="194.6719" id="OllamaEngine" rx="2.5" ry="2.5" style="stroke:#181818;stroke-width:0.5;" width="524.1758" x="22" y="244"/><ellipse cx="231.0498" cy="260" fill="#ADD1B2" rx="11" ry="11" style="stroke:#181818;stroke-width:1.0;"/><path d="M234.0186,265.6406 Q233.4404,265.9375 232.7998,266.0781 Q232.1592,266.2344 231.4561,266.2344 Q228.9561,266.2344 227.6279,264.5938 Q226.3154,262.9375 226.3154,259.8125 Q226.3154,256.6875 227.6279,255.0313 Q228.9561,253.375 231.4561,253.375 Q232.1592,253.375 232.7998,253.5313 Q233.4561,253.6875 234.0186,253.9844 L234.0186,256.7031 Q233.3936,256.125 232.7998,255.8594 Q232.2061,255.5781 231.5811,255.5781 Q230.2373,255.5781 229.5498,256.6563 Q228.8623,257.7188 228.8623,259.8125 Q228.8623,261.9063 229.5498,262.9844 Q230.2373,264.0469 231.5811,264.0469 Q232.2061,264.0469 232.7998,263.7813 Q233.3936,263.5 234.0186,262.9219 L234.0186,265.6406 Z " fill="#000000"/><text fill="#000000" font-family="sans-serif" font-size="14" lengthAdjust="spacing" textLength="97.5762" x="251.5498" y="264.8467">OllamaEngine</text><line style="stroke:#181818;stroke-width:0.5;" x1="23" x2="545.1758" y1="276" y2="276"/><rect fill="none" height="6" style="stroke:#C82930;stroke-width:1.0;" width="6" x="30" y="286.6484"/><text fill="#000000" font-family="sans-serif" font-size="14" lengthAdjust="spacing" textLength="94.541" x="42" y="292.9951">model: String</text><rect fill="none" height="6" style="stroke:#C82930;stroke-width:1.0;" width="6" x="30" y="302.9453"/><text fill="#000000" font-family="sans-serif" font-size="14" lengthAdjust="spacing" textLength="128.9258" x="42" y="309.292">temperature: float</text><line style="stroke:#181818;stroke-width:0.5;" x1="23" x2="545.1758" y1="316.5938" y2="316.5938"/><ellipse cx="33" cy="330.2422" fill="#84BE84" rx="3" ry="3" style="stroke:#038048;stroke-width:1.0;"/><text fill="#000000" font-family="sans-serif" font-size="14" lengthAdjust="spacing" textLength="207.6895" x="42" y="333.5889">setModel(model: String): void</text><ellipse cx="33" cy="346.5391" fill="#84BE84" rx="3" ry="3" style="stroke:#038048;stroke-width:1.0;"/><text fill="#000000" font-family="sans-serif" font-size="14" lengthAdjust="spacing" textLength="126.8955" x="42" y="349.8857">getModel(): String</text><ellipse cx="33" cy="362.8359" fill="#84BE84" rx="3" ry="3" style="stroke:#038048;stroke-width:1.0;"/><text fill="#000000" font-family="sans-serif" font-size="14" lengthAdjust="spacing" textLength="291.4092" x="42" y="366.1826">setTemperature(temperature: float): void</text><ellipse cx="33" cy="379.1328" fill="#84BE84" rx="3" ry="3" style="stroke:#038048;stroke-width:1.0;"/><text fill="#000000" font-family="sans-serif" font-size="14" lengthAdjust="spacing" textLength="165.9014" x="42" y="382.4795">getTemperature(): float</text><ellipse cx="33" cy="395.4297" fill="#84BE84" rx="3" ry="3" style="stroke:#038048;stroke-width:1.0;"/><text fill="#000000" font-family="sans-serif" font-size="14" lengthAdjust="spacing" textLength="411.9951" x="42" y="398.7764">generateAsyncAnswerFromPrompt (prompt: String): String</text><ellipse cx="33" cy="411.7266" fill="#84BE84" rx="3" ry="3" style="stroke:#038048;stroke-width:1.0;"/><text fill="#000000" font-family="sans-serif" font-size="14" lengthAdjust="spacing" textLength="404.0107" x="42" y="415.0732">generateSyncAnswerFromPrompt (prompt: String): String</text><ellipse cx="33" cy="428.0234" fill="#84BE84" rx="3" ry="3" style="stroke:#038048;stroke-width:1.0;"/><text fill="#000000" font-family="sans-serif" font-size="14" lengthAdjust="spacing" textLength="498.1758" x="42" y="431.3701">generateAnswerFromImage (prompt: String, imagePath: String): String</text></g><!--class TesseractEngine--><g id="elem_TesseractEngine"><rect codeLine="44" fill="#F1F1F1" height="64.2969" id="TesseractEngine" rx="2.5" ry="2.5" style="stroke:#181818;stroke-width:0.5;" width="378.9668" x="601.5" y="309.5"/><ellipse cx="728.7988" cy="325.5" fill="#ADD1B2" rx="11" ry="11" style="stroke:#181818;stroke-width:1.0;"/><path d="M731.7676,331.1406 Q731.1895,331.4375 730.5488,331.5781 Q729.9082,331.7344 729.2051,331.7344 Q726.7051,331.7344 725.377,330.0938 Q724.0645,328.4375 724.0645,325.3125 Q724.0645,322.1875 725.377,320.5313 Q726.7051,318.875 729.2051,318.875 Q729.9082,318.875 730.5488,319.0313 Q731.2051,319.1875 731.7676,319.4844 L731.7676,322.2031 Q731.1426,321.625 730.5488,321.3594 Q729.9551,321.0781 729.3301,321.0781 Q727.9863,321.0781 727.2988,322.1563 Q726.6113,323.2188 726.6113,325.3125 Q726.6113,327.4063 727.2988,328.4844 Q727.9863,329.5469 729.3301,329.5469 Q729.9551,329.5469 730.5488,329.2813 Q731.1426,329 731.7676,328.4219 L731.7676,331.1406 Z " fill="#000000"/><text fill="#000000" font-family="sans-serif" font-size="14" lengthAdjust="spacing" textLength="115.8691" x="749.2988" y="330.3467">TesseractEngine</text><line style="stroke:#181818;stroke-width:0.5;" x1="602.5" x2="979.4668" y1="341.5" y2="341.5"/><line style="stroke:#181818;stroke-width:0.5;" x1="602.5" x2="979.4668" y1="349.5" y2="349.5"/><ellipse cx="612.5" cy="363.1484" fill="#84BE84" rx="3" ry="3" style="stroke:#038048;stroke-width:1.0;"/><text fill="#000000" font-family="sans-serif" font-size="14" lengthAdjust="spacing" textLength="352.9668" x="621.5" y="366.4951">extractTextFromImage (imagePath: String): String</text></g><!--class DatabaseConnection--><g id="elem_DatabaseConnection"><rect codeLine="50" fill="#F1F1F1" height="129.4844" id="DatabaseConnection" rx="2.5" ry="2.5" style="stroke:#181818;stroke-width:0.5;" width="231.96" x="1063" y="277"/><ellipse cx="1102.275" cy="293" fill="#ADD1B2" rx="11" ry="11" style="stroke:#181818;stroke-width:1.0;"/><path d="M1105.2437,298.6406 Q1104.6656,298.9375 1104.025,299.0781 Q1103.3843,299.2344 1102.6812,299.2344 Q1100.1812,299.2344 1098.8531,297.5938 Q1097.5406,295.9375 1097.5406,292.8125 Q1097.5406,289.6875 1098.8531,288.0313 Q1100.1812,286.375 1102.6812,286.375 Q1103.3843,286.375 1104.025,286.5313 Q1104.6812,286.6875 1105.2437,286.9844 L1105.2437,289.7031 Q1104.6187,289.125 1104.025,288.8594 Q1103.4312,288.5781 1102.8062,288.5781 Q1101.4625,288.5781 1100.775,289.6563 Q1100.0875,290.7188 1100.0875,292.8125 Q1100.0875,294.9063 1100.775,295.9844 Q1101.4625,297.0469 1102.8062,297.0469 Q1103.4312,297.0469 1104.025,296.7813 Q1104.6187,296.5 1105.2437,295.9219 L1105.2437,298.6406 Z " fill="#000000"/><text fill="#000000" font-family="sans-serif" font-size="14" lengthAdjust="spacing" textLength="146.0156" x="1121.6694" y="297.8467">DatabaseConnection</text><line style="stroke:#181818;stroke-width:0.5;" x1="1064" x2="1293.96" y1="309" y2="309"/><rect fill="none" height="6" style="stroke:#C82930;stroke-width:1.0;" width="6" x="1071" y="319.6484"/><text fill="#000000" font-family="sans-serif" font-size="14" lengthAdjust="spacing" textLength="69.4668" x="1083" y="325.9951">url: String</text><rect fill="none" height="6" style="stroke:#C82930;stroke-width:1.0;" width="6" x="1071" y="335.9453"/><text fill="#000000" font-family="sans-serif" font-size="14" lengthAdjust="spacing" textLength="81.4844" x="1083" y="342.292">user: String</text><rect fill="none" height="6" style="stroke:#C82930;stroke-width:1.0;" width="6" x="1071" y="352.2422"/><text fill="#000000" font-family="sans-serif" font-size="14" lengthAdjust="spacing" textLength="117.6602" x="1083" y="358.5889">password: String</text><line style="stroke:#181818;stroke-width:0.5;" x1="1064" x2="1293.96" y1="365.8906" y2="365.8906"/><ellipse cx="1074" cy="379.5391" fill="#84BE84" rx="3" ry="3" style="stroke:#038048;stroke-width:1.0;"/><text fill="#000000" font-family="sans-serif" font-size="14" lengthAdjust="spacing" textLength="195.8086" x="1083" y="382.8857">loadDatabaseConfig() : void</text><ellipse cx="1074" cy="395.8359" fill="#84BE84" rx="3" ry="3" style="stroke:#038048;stroke-width:1.0;"/><text fill="#000000" font-family="sans-serif" font-size="14" lengthAdjust="spacing" textLength="205.96" x="1083" y="399.1826">getConnection() : Connection</text></g><!--class Pessoa--><g id="elem_Pessoa"><rect codeLine="58" fill="#F1F1F1" height="48" id="Pessoa" rx="2.5" ry="2.5" style="stroke:#181818;stroke-width:0.5;" width="80.7881" x="1036.5" y="524"/><ellipse cx="1051.5" cy="540" fill="#ADD1B2" rx="11" ry="11" style="stroke:#181818;stroke-width:1.0;"/><path d="M1054.4688,545.6406 Q1053.8906,545.9375 1053.25,546.0781 Q1052.6094,546.2344 1051.9063,546.2344 Q1049.4063,546.2344 1048.0781,544.5938 Q1046.7656,542.9375 1046.7656,539.8125 Q1046.7656,536.6875 1048.0781,535.0313 Q1049.4063,533.375 1051.9063,533.375 Q1052.6094,533.375 1053.25,533.5313 Q1053.9063,533.6875 1054.4688,533.9844 L1054.4688,536.7031 Q1053.8438,536.125 1053.25,535.8594 Q1052.6563,535.5781 1052.0313,535.5781 Q1050.6875,535.5781 1050,536.6563 Q1049.3125,537.7188 1049.3125,539.8125 Q1049.3125,541.9063 1050,542.9844 Q1050.6875,544.0469 1052.0313,544.0469 Q1052.6563,544.0469 1053.25,543.7813 Q1053.8438,543.5 1054.4688,542.9219 L1054.4688,545.6406 Z " fill="#000000"/><text fill="#000000" font-family="sans-serif" font-size="14" lengthAdjust="spacing" textLength="48.7881" x="1065.5" y="544.8467">Pessoa</text><line style="stroke:#181818;stroke-width:0.5;" x1="1037.5" x2="1116.2881" y1="556" y2="556"/><line style="stroke:#181818;stroke-width:0.5;" x1="1037.5" x2="1116.2881" y1="564" y2="564"/></g><!--class RG--><g id="elem_RG"><rect codeLine="62" fill="#F1F1F1" height="48" id="RG" rx="2.5" ry="2.5" style="stroke:#181818;stroke-width:0.5;" width="52.5762" x="1152.5" y="524"/><ellipse cx="1167.5" cy="540" fill="#ADD1B2" rx="11" ry="11" style="stroke:#181818;stroke-width:1.0;"/><path d="M1170.4688,545.6406 Q1169.8906,545.9375 1169.25,546.0781 Q1168.6094,546.2344 1167.9063,546.2344 Q1165.4063,546.2344 1164.0781,544.5938 Q1162.7656,542.9375 1162.7656,539.8125 Q1162.7656,536.6875 1164.0781,535.0313 Q1165.4063,533.375 1167.9063,533.375 Q1168.6094,533.375 1169.25,533.5313 Q1169.9063,533.6875 1170.4688,533.9844 L1170.4688,536.7031 Q1169.8438,536.125 1169.25,535.8594 Q1168.6563,535.5781 1168.0313,535.5781 Q1166.6875,535.5781 1166,536.6563 Q1165.3125,537.7188 1165.3125,539.8125 Q1165.3125,541.9063 1166,542.9844 Q1166.6875,544.0469 1168.0313,544.0469 Q1168.6563,544.0469 1169.25,543.7813 Q1169.8438,543.5 1170.4688,542.9219 L1170.4688,545.6406 Z " fill="#000000"/><text fill="#000000" font-family="sans-serif" font-size="14" lengthAdjust="spacing" textLength="20.5762" x="1181.5" y="544.8467">RG</text><line style="stroke:#181818;stroke-width:0.5;" x1="1153.5" x2="1204.0762" y1="556" y2="556"/><line style="stroke:#181818;stroke-width:0.5;" x1="1153.5" x2="1204.0762" y1="564" y2="564"/></g><!--class CNH--><g id="elem_CNH"><rect codeLine="66" fill="#F1F1F1" height="48" id="CNH" rx="2.5" ry="2.5" style="stroke:#181818;stroke-width:0.5;" width="62.7754" x="1240.5" y="524"/><ellipse cx="1255.5" cy="540" fill="#ADD1B2" rx="11" ry="11" style="stroke:#181818;stroke-width:1.0;"/><path d="M1258.4688,545.6406 Q1257.8906,545.9375 1257.25,546.0781 Q1256.6094,546.2344 1255.9063,546.2344 Q1253.4063,546.2344 1252.0781,544.5938 Q1250.7656,542.9375 1250.7656,539.8125 Q1250.7656,536.6875 1252.0781,535.0313 Q1253.4063,533.375 1255.9063,533.375 Q1256.6094,533.375 1257.25,533.5313 Q1257.9063,533.6875 1258.4688,533.9844 L1258.4688,536.7031 Q1257.8438,536.125 1257.25,535.8594 Q1256.6563,535.5781 1256.0313,535.5781 Q1254.6875,535.5781 1254,536.6563 Q1253.3125,537.7188 1253.3125,539.8125 Q1253.3125,541.9063 1254,542.9844 Q1254.6875,544.0469 1256.0313,544.0469 Q1256.6563,544.0469 1257.25,543.7813 Q1257.8438,543.5 1258.4688,542.9219 L1258.4688,545.6406 Z " fill="#000000"/><text fill="#000000" font-family="sans-serif" font-size="14" lengthAdjust="spacing" textLength="30.7754" x="1269.5" y="544.8467">CNH</text><line style="stroke:#181818;stroke-width:0.5;" x1="1241.5" x2="1302.2754" y1="556" y2="556"/><line style="stroke:#181818;stroke-width:0.5;" x1="1241.5" x2="1302.2754" y1="564" y2="564"/></g><!--class CRNM--><g id="elem_CRNM"><rect codeLine="70" fill="#F1F1F1" height="48" id="CRNM" rx="2.5" ry="2.5" style="stroke:#181818;stroke-width:0.5;" width="74.0547" x="1339" y="524"/><ellipse cx="1354" cy="540" fill="#ADD1B2" rx="11" ry="11" style="stroke:#181818;stroke-width:1.0;"/><path d="M1356.9688,545.6406 Q1356.3906,545.9375 1355.75,546.0781 Q1355.1094,546.2344 1354.4063,546.2344 Q1351.9063,546.2344 1350.5781,544.5938 Q1349.2656,542.9375 1349.2656,539.8125 Q1349.2656,536.6875 1350.5781,535.0313 Q1351.9063,533.375 1354.4063,533.375 Q1355.1094,533.375 1355.75,533.5313 Q1356.4063,533.6875 1356.9688,533.9844 L1356.9688,536.7031 Q1356.3438,536.125 1355.75,535.8594 Q1355.1563,535.5781 1354.5313,535.5781 Q1353.1875,535.5781 1352.5,536.6563 Q1351.8125,537.7188 1351.8125,539.8125 Q1351.8125,541.9063 1352.5,542.9844 Q1353.1875,544.0469 1354.5313,544.0469 Q1355.1563,544.0469 1355.75,543.7813 Q1356.3438,543.5 1356.9688,542.9219 L1356.9688,545.6406 Z " fill="#000000"/><text fill="#000000" font-family="sans-serif" font-size="14" lengthAdjust="spacing" textLength="42.0547" x="1368" y="544.8467">CRNM</text><line style="stroke:#181818;stroke-width:0.5;" x1="1340" x2="1412.0547" y1="556" y2="556"/><line style="stroke:#181818;stroke-width:0.5;" x1="1340" x2="1412.0547" y1="564" y2="564"/></g><!--class App--><g id="elem_App"><rect codeLine="1" fill="#F1F1F1" height="113.1875" id="App" rx="2.5" ry="2.5" style="stroke:#181818;stroke-width:0.5;" width="456.5068" x="684.5" y="33"/><ellipse cx="894.8281" cy="49" fill="#ADD1B2" rx="11" ry="11" style="stroke:#181818;stroke-width:1.0;"/><path d="M897.7969,54.6406 Q897.2188,54.9375 896.5781,55.0781 Q895.9375,55.2344 895.2344,55.2344 Q892.7344,55.2344 891.4063,53.5938 Q890.0938,51.9375 890.0938,48.8125 Q890.0938,45.6875 891.4063,44.0313 Q892.7344,42.375 895.2344,42.375 Q895.9375,42.375 896.5781,42.5313 Q897.2344,42.6875 897.7969,42.9844 L897.7969,45.7031 Q897.1719,45.125 896.5781,44.8594 Q895.9844,44.5781 895.3594,44.5781 Q894.0156,44.5781 893.3281,45.6563 Q892.6406,46.7188 892.6406,48.8125 Q892.6406,50.9063 893.3281,51.9844 Q894.0156,53.0469 895.3594,53.0469 Q895.9844,53.0469 896.5781,52.7813 Q897.1719,52.5 897.7969,51.9219 L897.7969,54.6406 Z " fill="#000000"/><text fill="#000000" font-family="sans-serif" font-size="14" lengthAdjust="spacing" textLength="27.3506" x="915.3281" y="53.8467">App</text><line style="stroke:#181818;stroke-width:0.5;" x1="685.5" x2="1140.0068" y1="65" y2="65"/><line style="stroke:#181818;stroke-width:0.5;" x1="685.5" x2="1140.0068" y1="73" y2="73"/><ellipse cx="695.5" cy="86.6484" fill="#84BE84" rx="3" ry="3" style="stroke:#038048;stroke-width:1.0;"/><text fill="#000000" font-family="sans-serif" font-size="14" lengthAdjust="spacing" textLength="177.085" x="704.5" y="89.9951">main(args: String[]): void</text><ellipse cx="695.5" cy="102.9453" fill="#84BE84" rx="3" ry="3" style="stroke:#038048;stroke-width:1.0;"/><text fill="#000000" font-family="sans-serif" font-size="14" lengthAdjust="spacing" textLength="383.6943" x="704.5" y="106.292">startOllamaEngine(modelName: String): OllamaEngine</text><ellipse cx="695.5" cy="119.2422" fill="#84BE84" rx="3" ry="3" style="stroke:#038048;stroke-width:1.0;"/><text fill="#000000" font-family="sans-serif" font-size="14" lengthAdjust="spacing" textLength="284.4365" x="704.5" y="122.5889">startTesseractEngine(): TesseractEngine</text><ellipse cx="695.5" cy="135.5391" fill="#84BE84" rx="3" ry="3" style="stroke:#038048;stroke-width:1.0;"/><text fill="#000000" font-family="sans-serif" font-size="14" lengthAdjust="spacing" textLength="430.5068" x="704.5" y="138.8857">processImage(modelName: String, imagePath: String): String</text></g><!--link MainController to Main--><g id="link_MainController_Main"><path codeLine="20" d="M1596,138.11 C1596,185.29 1596,250.71 1596,294.88 " fill="none" id="MainController-to-Main" style="stroke:#181818;stroke-width:1.0;"/><polygon fill="#181818" points="1596,300.88,1600,291.88,1596,295.88,1592,291.88,1596,300.88" style="stroke:#181818;stroke-width:1.0;"/><text fill="#000000" font-family="sans-serif" font-size="13" lengthAdjust="spacing" textLength="52.1206" x="1597" y="189.0669">controls</text></g><!--link OllamaEngine to CustomModelType--><g id="link_OllamaEngine_CustomModelType"><path codeLine="40" d="M284,439.06 C284,466.78 284,489.05 284,509.71 " fill="none" id="OllamaEngine-to-CustomModelType" style="stroke:#181818;stroke-width:1.0;"/><polygon fill="#181818" points="284,515.71,288,506.71,284,510.71,280,506.71,284,515.71" style="stroke:#181818;stroke-width:1.0;"/><text fill="#000000" font-family="sans-serif" font-size="13" lengthAdjust="spacing" textLength="29.7832" x="285" y="482.0669">uses</text></g><!--link DatabaseConnection to Pessoa--><g id="link_DatabaseConnection_Pessoa"><path codeLine="74" d="M1147.29,406.08 C1127.29,446.18 1105.3172,490.2204 1091.1672,518.6004 " fill="none" id="DatabaseConnection-to-Pessoa" style="stroke:#181818;stroke-width:1.0;"/><polygon fill="#181818" points="1088.49,523.97,1096.0856,517.7004,1090.721,519.4953,1088.9261,514.1308,1088.49,523.97" style="stroke:#181818;stroke-width:1.0;"/><text fill="#000000" font-family="sans-serif" font-size="13" lengthAdjust="spacing" textLength="43.8052" x="1116" y="482.0669">access</text></g><!--link DatabaseConnection to RG--><g id="link_DatabaseConnection_RG"><path codeLine="75" d="M1179,406.08 C1179,446.18 1179,489.59 1179,517.97 " fill="none" id="DatabaseConnection-to-RG" style="stroke:#181818;stroke-width:1.0;"/><polygon fill="#181818" points="1179,523.97,1183,514.97,1179,518.97,1175,514.97,1179,523.97" style="stroke:#181818;stroke-width:1.0;"/><text fill="#000000" font-family="sans-serif" font-size="13" lengthAdjust="spacing" textLength="43.8052" x="1180" y="482.0669">access</text></g><!--link DatabaseConnection to CNH--><g id="link_DatabaseConnection_CNH"><path codeLine="76" d="M1207.92,406.08 C1226.15,446.18 1246.1356,490.1285 1259.0456,518.5085 " fill="none" id="DatabaseConnection-to-CNH" style="stroke:#181818;stroke-width:1.0;"/><polygon fill="#181818" points="1261.53,523.97,1261.4444,514.1215,1259.4597,519.4188,1254.1624,517.4341,1261.53,523.97" style="stroke:#181818;stroke-width:1.0;"/><text fill="#000000" font-family="sans-serif" font-size="13" lengthAdjust="spacing" textLength="43.8052" x="1242" y="482.0669">access</text></g><!--link DatabaseConnection to CRNM--><g id="link_DatabaseConnection_CRNM"><path codeLine="77" d="M1240.25,406.08 C1278.88,446.18 1322.3065,491.2697 1349.6565,519.6497 " fill="none" id="DatabaseConnection-to-CRNM" style="stroke:#181818;stroke-width:1.0;"/><polygon fill="#181818" points="1353.82,523.97,1350.4549,514.7138,1350.3504,520.3697,1344.6945,520.2652,1353.82,523.97" style="stroke:#181818;stroke-width:1.0;"/><text fill="#000000" font-family="sans-serif" font-size="13" lengthAdjust="spacing" textLength="43.8052" x="1313" y="482.0669">access</text></g><!--link App to OllamaEngine--><g id="link_App_OllamaEngine"><path codeLine="81" d="M737.37,146.01 C688.01,162.64 634.57,181.64 586,201 C553.14,214.1 524.1941,226.4535 490.8341,241.4235 " fill="none" id="App-to-OllamaEngine" style="stroke:#181818;stroke-width:1.0;"/><polygon fill="#181818" points="485.36,243.88,495.2088,243.8447,489.9218,241.833,491.9335,236.5459,485.36,243.88" style="stroke:#181818;stroke-width:1.0;"/><text fill="#000000" font-family="sans-serif" font-size="13" lengthAdjust="spacing" textLength="58.9443" x="648" y="189.0669">executes</text></g><!--link App to TesseractEngine--><g id="link_App_TesseractEngine"><path codeLine="82" d="M885.77,146.29 C861.26,196.52 828.7613,263.1177 808.8813,303.8577 " fill="none" id="App-to-TesseractEngine" style="stroke:#181818;stroke-width:1.0;"/><polygon fill="#181818" points="806.25,309.25,813.7917,302.9158,808.4427,304.7565,806.6021,299.4074,806.25,309.25" style="stroke:#181818;stroke-width:1.0;"/><text fill="#000000" font-family="sans-serif" font-size="13" lengthAdjust="spacing" textLength="58.9443" x="871" y="189.0669">executes</text></g><!--link App to Main--><g id="link_App_Main"><path codeLine="83" d="M1141.79,115.13 C1234.32,131.22 1340.06,157.66 1429,201 C1479.6,225.66 1523.6475,264.6073 1555.1575,296.4173 " fill="none" id="App-to-Main" style="stroke:#181818;stroke-width:1.0;"/><polygon fill="#181818" points="1559.38,300.68,1555.8881,291.471,1555.8613,297.1278,1550.2045,297.101,1559.38,300.68" style="stroke:#181818;stroke-width:1.0;"/><text fill="#000000" font-family="sans-serif" font-size="13" lengthAdjust="spacing" textLength="58.9443" x="1404" y="189.0669">executes</text></g><!--link App to DatabaseConnection--><g id="link_App_DatabaseConnection"><path codeLine="84" d="M972.36,146.29 C1013.55,185 1064.1279,232.5409 1107.0079,272.8409 " fill="none" id="App-to-DatabaseConnection" style="stroke:#181818;stroke-width:1.0;"/><polygon fill="#181818" points="1111.38,276.95,1107.5612,267.8716,1107.7366,273.5258,1102.0824,273.7011,1111.38,276.95" style="stroke:#181818;stroke-width:1.0;"/><text fill="#000000" font-family="sans-serif" font-size="13" lengthAdjust="spacing" textLength="58.5952" x="1015" y="189.0669">connects</text></g><!--SRC=[fLLDZzCm4BttL_YO2le7Sa2g2iiYqL9jombny3hJh8LZM_Q4fKByTyPkkh4JQwb4fIhDVFYzcNdZ2iMzPsjhsUy5eyyRrd6fA-vQNxC3EgdRRz-NDVjfP3C4UEGEloZ5E_v1jr93rPa6r8vtS4sXX3GWJJo2z-2um26NGYUc8Tew8yZngUDj0U4jay6nv_YKW5v-BFui5fQB7-HdRI-7oaIiT4lL3OQ4L6KT7UVE1wISS0mzqg9lwWoXvZWRez4PfS0bY2jsachWVOHVU2T1DJaVxFrd_WYgPl714kyJrus2hrOPtbG5y0diQlNkKd7DnCNgq-QOEAEiFvlUe-cseTt7iuMiLKY6T0RpgjEXPpN7-MLv5pj2Psdqs3iwzKHLOTeAm4YaohBdSsclSSiPGZpaE89KSy3YUMdASiwi1HsyiFPdBTRQFuExSwRRqzSY8pM5vroNymCE_va_viOzcQQ-kYN9zBAv1T5CPL2ptaEc7RmkRIQVoIfdyY6n1qyK_KZudmGJp8OZV-GUCiZtWv5ahq6WD3fJNkzAkgDgNC5iwS1duvf2nyF69L0dsLPBLfBEo2C6ZAzfmpUH-fwwPSB-pJVfuMFHlDdTb-qFk-t4KUXBcEo0MJCkmlNwMYXnk2KiSBefBd1y2Gnp3NyxmPF9hoQXWEX9No_-gQeA8SCjDxCNkCIxCBpulm00]--></g></svg>